<?xml version="1.0" encoding="UTF-8" standalone="no"?>
<svg
   xmlns:dc="http://purl.org/dc/elements/1.1/"
   xmlns:cc="http://creativecommons.org/ns#"
   xmlns:rdf="http://www.w3.org/1999/02/22-rdf-syntax-ns#"
   xmlns:svg="http://www.w3.org/2000/svg"
   xmlns="http://www.w3.org/2000/svg"
   version="1.1"
   id="svg2"
   viewBox="0 0 400.00004 444.16199"
   height="125.35239mm"
   width="112.88891mm">
  <defs
     id="defs4" />
  <metadata
     id="metadata7">
    <rdf:RDF>
      <cc:Work
         rdf:about="">
        <dc:format>image/svg+xml</dc:format>
        <dc:type
           rdf:resource="http://purl.org/dc/dcmitype/StillImage" />
        <dc:title></dc:title>
      </cc:Work>
    </rdf:RDF>
  </metadata>
  <g
     transform="translate(-173.92869,-245.70009)"
     id="layer1">
    <path
       id="rect4306"
       d="m 173.92871,419.86206 0,209.29101 c 0,33.63229 27.07669,60.70899 60.70898,60.70899 l 278.58204,0 c 33.63229,0 60.70898,-27.0767 60.70898,-60.70899 l 0,-209.29101 -0.0215,0 c 0.24145,9.25991 -4.35636,18.57537 -13.81836,25.67187 L 407.2373,560.1726 c -18.45311,13.83985 -48.16407,13.83985 -66.61718,0 L 187.76855,445.53393 c -9.462,-7.0965 -14.05981,-16.41196 -13.81836,-25.67187 l -0.0215,0 z"
       style="fill:#000000;fill-opacity:0.31372549;stroke:none" />
    <path
       id="rect4306-7-5"
       transform="translate(173.92867,245.70009)"
       d="M 200 0 C 187.95884 0 175.91796 3.4589876 166.69141 10.378906 L 13.839844 125.01758 C -4.6132727 138.85742 -4.6132727 161.14258 13.839844 174.98242 L 166.69141 289.61914 C 185.14452 303.45898 214.85548 303.45898 233.30859 289.61914 L 386.16016 174.98242 C 404.61327 161.14258 404.61327 138.85742 386.16016 125.01758 L 233.30859 10.378906 C 224.08204 3.4589876 212.04116 0 200 0 z M 205.21289 90.193359 C 217.9544 90.193359 228.01611 93.307244 235.40039 99.537109 C 242.78467 105.66314 246.47852 114.23023 246.47852 125.23633 L 246.47852 178.96875 C 242.13482 180.21472 237.717 181.09803 233.22852 181.61719 C 228.74003 182.03251 224.61415 182.24023 220.84961 182.24023 C 215.78196 182.24023 211.07612 181.66753 206.73242 180.52539 C 202.38873 179.27942 198.55282 177.41187 195.22266 174.91992 C 192.03728 172.42798 189.50336 169.25972 187.62109 165.41797 C 185.88362 161.47239 185.01367 156.80156 185.01367 151.40234 C 185.01367 141.74605 188.48954 134.4253 195.43945 129.44141 C 202.38937 124.35368 211.43907 121.81055 222.58789 121.81055 C 223.74621 121.81055 224.83217 121.86101 225.8457 121.96484 C 227.00402 121.96484 228.16199 122.01726 229.32031 122.12109 C 229.32031 115.57973 227.43836 110.38863 223.67383 106.54688 C 219.90929 102.70512 213.89951 100.7832 205.64648 100.7832 C 200.57884 100.7832 195.945 101.66651 191.74609 103.43164 C 187.54719 105.19677 183.92926 108.05247 180.88867 111.99805 C 177.84808 115.8398 175.45818 120.82318 173.7207 126.94922 C 171.98322 133.07525 171.11523 140.49889 171.11523 149.2207 C 171.11523 155.76206 171.98322 162.09662 173.7207 168.22266 C 175.45818 174.24486 178.13611 179.54081 181.75586 184.10938 C 185.5204 188.67794 190.22624 192.31211 195.87305 195.01172 C 201.66464 197.81516 208.54242 199.2168 216.50586 199.2168 C 222.29745 199.2168 228.30724 198.54121 234.5332 197.19141 L 236.26953 207.62695 C 228.59567 209.08059 221.50187 209.80664 214.98633 209.80664 C 204.41667 209.80664 195.22295 208.09439 187.4043 204.66797 C 179.73043 201.34537 173.35866 196.93078 168.29102 191.42773 C 163.36816 185.92469 159.67627 179.6445 157.21484 172.58398 C 154.75342 165.52347 153.52344 158.3056 153.52344 150.93359 C 153.52344 140.23899 154.82542 131.05069 157.43164 123.36719 C 160.18265 115.68369 163.87454 109.40155 168.50781 104.52148 C 173.28588 99.641423 178.78771 96.059675 185.01367 93.775391 C 191.23964 91.387276 197.9734 90.193359 205.21289 90.193359 z M 221.93555 132.24414 C 215.70958 132.24414 210.85972 134.01076 207.38477 137.54102 C 204.0546 140.96744 202.38867 145.5878 202.38867 151.40234 C 202.38867 153.47897 202.53464 155.71149 202.82422 158.09961 C 203.25859 160.48772 204.12658 162.72025 205.42969 164.79688 C 206.7328 166.76967 208.54274 168.48191 210.85938 169.93555 C 213.3208 171.28535 216.6507 171.96094 220.84961 171.96094 C 222.00793 171.96094 223.31187 171.90852 224.75977 171.80469 C 226.20766 171.70086 227.72762 171.49313 229.32031 171.18164 L 229.32031 133.02344 C 228.0172 132.71194 226.71327 132.50422 225.41016 132.40039 C 224.25184 132.29656 223.09387 132.24414 221.93555 132.24414 z "
       style="fill:#000000;fill-opacity:0.31372549;stroke:none" />
  </g>
</svg>
