<?xml version="1.0" encoding="UTF-8" standalone="no"?>
<svg
   xmlns:dc="http://purl.org/dc/elements/1.1/"
   xmlns:cc="http://creativecommons.org/ns#"
   xmlns:rdf="http://www.w3.org/1999/02/22-rdf-syntax-ns#"
   xmlns:svg="http://www.w3.org/2000/svg"
   xmlns="http://www.w3.org/2000/svg"
   version="1.1"
   id="svg2"
   viewBox="0 0 385.68402 385.9021"
   height="108.91015mm"
   width="108.8486mm">
  <defs
     id="defs4" />
  <metadata
     id="metadata7">
    <rdf:RDF>
      <cc:Work
         rdf:about="">
        <dc:format>image/svg+xml</dc:format>
        <dc:type
           rdf:resource="http://purl.org/dc/dcmitype/StillImage" />
        <dc:title></dc:title>
      </cc:Work>
    </rdf:RDF>
  </metadata>
  <g
     transform="translate(267.12772,249.16028)"
     id="layer1">
    <g
       id="layer1-9"
       transform="translate(-434.24003,-604.24854)">
      <path
         style="fill:#000000;fill-opacity:0.31372549"
         d="m 185.21826,740.56151 c -8.65591,-1.13551 -16.30662,-8.53216 -17.76144,-17.1716 -0.30639,-1.81947 -0.39635,-51.96923 -0.31743,-176.9531 l 0.11012,-174.41404 1.03046,-2.81875 c 2.24177,-6.13222 6.81957,-10.71578 13.09021,-13.10667 l 2.28558,-0.87145 174.60935,-0.11034 c 125.44718,-0.0793 175.31949,0.0104 177.13156,0.31848 7.48384,1.27236 14.20453,7.21472 16.53423,14.61939 l 0.86543,2.75059 0,174.99998 c 0,168.77266 -0.0254,175.08337 -0.71824,177.34372 -2.235,7.29317 -7.30596,12.42917 -14.71145,14.90015 -2.03291,0.67833 -4.88425,0.72293 -53.02733,0.82969 l -50.8789,0.11281 0,-74.61767 0,-74.61765 25.08682,-0.10053 25.08682,-0.10053 c 2.49365,-19.40104 4.98731,-38.80208 7.48096,-58.20312 l -28.85269,-0.10016 -28.85269,-0.10017 0.15625,-22.75139 c 0.18938,-27.57579 0.62871,-30.15882 6.0695,-35.68611 5.79609,-5.88824 9.01723,-6.53107 33.57112,-6.69963 l 20.01953,-0.13744 c 0,-17.52708 0,-35.05417 0,-52.58125 l -2.63672,-0.27275 c -14.59701,-1.50997 -45.33825,-2.33208 -53.22265,-1.42333 -38.10225,4.39162 -60.94193,28.69078 -64.05562,68.14881 -0.21863,2.77046 -0.3975,15.47065 -0.3975,28.22265 l 0,23.18546 -25.19779,0 -25.1978,0 c 0.0668,19.46614 0.13352,38.93229 0.20029,58.39843 l 25.09765,0.10053 25.09765,0.10053 0,74.60649 0,74.60649 -92.67576,-0.0495 c -50.97168,-0.0273 -93.73046,-0.18789 -95.01952,-0.35699 z"
         id="path5865" />
    </g>
  </g>
</svg>
