<?xml version="1.0" encoding="UTF-8" standalone="no"?>
<svg
   xmlns:dc="http://purl.org/dc/elements/1.1/"
   xmlns:cc="http://creativecommons.org/ns#"
   xmlns:rdf="http://www.w3.org/1999/02/22-rdf-syntax-ns#"
   xmlns:svg="http://www.w3.org/2000/svg"
   xmlns="http://www.w3.org/2000/svg"
   version="1.1"
   id="svg2"
   viewBox="0 0 399.99998 400.55928"
   height="113.04673mm"
   width="112.88889mm">
  <defs
     id="defs4" />
  <metadata
     id="metadata7">
    <rdf:RDF>
      <cc:Work
         rdf:about="">
        <dc:format>image/svg+xml</dc:format>
        <dc:type
           rdf:resource="http://purl.org/dc/dcmitype/StillImage" />
        <dc:title></dc:title>
      </cc:Work>
    </rdf:RDF>
  </metadata>
  <g
     transform="translate(263.80269,213.45833)"
     id="layer1">
    <path
       id="path4262"
       d="M -88.10567,186.30032 C -190.41175,173.19387 -263.80269,90.0317 -263.80269,-12.788911 c 0,-166.108399 187.79672,-259.416749 321.214524,-159.598099 73.931726,55.31321 99.618176,158.170015 60.784476,243.40063 -27.636092,60.65456 -85.289143,103.99866 -152.40661,114.5807 -10.27752,1.62041 -43.37362,2.05394 -53.89537,0.706 z M -101.04056,64.1271 c 43.02568,-3.59136 76.904,-48.365417 69.481,-91.827064 l -0.58299,-3.413374 -39.47924,0 -39.47924,0 0,16.168612 0,16.1686118 22.68448,0 22.68449,0 -0.49877,1.616861 c -5.06735,16.4269882 -24.71087,29.5634822 -44.1516,29.5261292 -44.57765,-0.08566 -64.08313,-55.063273 -29.86679,-84.181771 15.31647,-13.034494 40.58969,-13.917588 57.18088,-1.998002 l 3.38791,2.433972 11.28902,-11.30558 11.28901,-11.305582 -2.72446,-2.392107 c -46.63728,-40.948076 -122.69588,-9.366153 -129.72706,53.866749 -5.1077,45.934762 37.03681,91.150395 81.32731,87.253715 1.38331,-0.1217 4.61703,-0.39673 7.18605,-0.61117 z M 34.057172,4.8169108 l 0,-13.653495 14.012797,0 14.012797,0 0,-10.0604688 0,-10.06047 -14.012797,0 -14.012797,0 0,-14.012797 0,-14.012797 -10.060469,0 -10.06047,0 0,14.012797 0,14.012797 -13.65349319,0 -13.65349981,0 0,10.06047 0,10.0604688 13.65349981,0 13.65349319,0 0,13.653495 0,13.6534952 10.06047,0 10.060469,0 0,-13.6534952 z"
       style="fill:#000000;fill-opacity:0.3137255" />
  </g>
</svg>
