<?xml version="1.0" encoding="UTF-8" standalone="no"?>
<svg
   xmlns:dc="http://purl.org/dc/elements/1.1/"
   xmlns:cc="http://creativecommons.org/ns#"
   xmlns:rdf="http://www.w3.org/1999/02/22-rdf-syntax-ns#"
   xmlns:svg="http://www.w3.org/2000/svg"
   xmlns="http://www.w3.org/2000/svg"
   version="1.1"
   id="svg2"
   viewBox="0 0 399.99999 399.99999"
   height="112.88889mm"
   width="112.88889mm">
  <defs
     id="defs4" />
  <metadata
     id="metadata7">
    <rdf:RDF>
      <cc:Work
         rdf:about="">
        <dc:format>image/svg+xml</dc:format>
        <dc:type
           rdf:resource="http://purl.org/dc/dcmitype/StillImage" />
        <dc:title></dc:title>
      </cc:Work>
    </rdf:RDF>
  </metadata>
  <g
     transform="translate(-151.64707,-340.71513)"
     id="layer1">
    <path
       style="fill:#000000;fill-opacity:0.3137255;stroke:none"
       d="m 230.03212,340.71513 c -43.10563,0 -78.38505,35.27862 -78.38505,78.38505 l 0,243.2427 c 0,43.10564 35.27862,78.37225 78.38505,78.37225 l 243.2427,0 c 43.10604,0 78.37225,-35.26621 78.37225,-78.37225 l 0,-243.2427 c 0,-43.10563 -35.26621,-78.38505 -78.37225,-78.38505 l -243.2427,0 z m 19.71502,66.00805 c 20.66823,0 33.399,13.56832 33.79197,31.40372 0,17.44162 -13.12454,31.39132 -34.19174,31.39132 l -0.38777,0 c -20.27486,0 -33.37939,-13.9489 -33.37939,-31.39132 0,-17.83499 13.5011,-31.40372 34.16653,-31.40372 z m 178.10983,83.36042 c 39.74897,0 69.5464,25.98016 69.5464,81.81016 l 0,104.22514 -60.4076,0 0,-97.23729 c 0,-24.43468 -8.74262,-41.10516 -30.60378,-41.10516 -16.68889,0 -26.63644,11.23611 -31.00394,22.09045 -1.5955,3.8833 -1.98767,9.30687 -1.98767,14.73924 l 0,101.51276 -60.4076,0 c 0,0 0.79275,-164.71718 0,-181.77263 l 60.42,0 0,25.74085 c 8.02751,-12.38542 22.38658,-30.00392 54.44419,-30.00392 z m -208.7136,4.27587 60.40759,0 0,181.76023 -60.40759,0 0,-181.76023 z"
       id="path4237" />
  </g>
</svg>
