<?xml version="1.0" encoding="UTF-8" standalone="no"?>
<!-- Created with Inkscape (http://www.inkscape.org/) -->

<svg
   xmlns:dc="http://purl.org/dc/elements/1.1/"
   xmlns:cc="http://creativecommons.org/ns#"
   xmlns:rdf="http://www.w3.org/1999/02/22-rdf-syntax-ns#"
   xmlns:svg="http://www.w3.org/2000/svg"
   xmlns="http://www.w3.org/2000/svg"
   xmlns:sodipodi="http://sodipodi.sourceforge.net/DTD/sodipodi-0.dtd"
   xmlns:inkscape="http://www.inkscape.org/namespaces/inkscape"
   width="112.88895mm"
   height="33.346405mm"
   viewBox="0 0 400.00017 118.15655"
   id="svg2"
   version="1.1"
   inkscape:version="0.91 r13725"
   sodipodi:docname="carbody.svg">
  <defs
     id="defs4">
    <inkscape:path-effect
       effect="powerstroke"
       id="path-effect5475"
       is_visible="true"
       offset_points="0,0.5"
       sort_points="true"
       interpolator_type="Linear"
       interpolator_beta="0.2"
       start_linecap_type="zerowidth"
       linejoin_type="round"
       miter_limit="4"
       end_linecap_type="zerowidth"
       cusp_linecap_type="round" />
  </defs>
  <sodipodi:namedview
     id="base"
     pagecolor="#ffffff"
     bordercolor="#666666"
     borderopacity="1.0"
     inkscape:pageopacity="0.0"
     inkscape:pageshadow="2"
     inkscape:zoom="1.4"
     inkscape:cx="234.8367"
     inkscape:cy="106.77138"
     inkscape:document-units="px"
     inkscape:current-layer="layer1"
     showgrid="false"
     inkscape:snap-object-midpoints="true"
     inkscape:object-paths="true"
     inkscape:snap-intersection-paths="true"
     inkscape:object-nodes="true"
     inkscape:snap-smooth-nodes="true"
     inkscape:snap-midpoints="true"
     fit-margin-top="0"
     fit-margin-left="0"
     fit-margin-right="0"
     fit-margin-bottom="0"
     inkscape:window-width="1440"
     inkscape:window-height="800"
     inkscape:window-x="0"
     inkscape:window-y="1"
     inkscape:window-maximized="1"
     inkscape:snap-center="true" />
  <metadata
     id="metadata7">
    <rdf:RDF>
      <cc:Work
         rdf:about="">
        <dc:format>image/svg+xml</dc:format>
        <dc:type
           rdf:resource="http://purl.org/dc/dcmitype/StillImage" />
        <dc:title></dc:title>
      </cc:Work>
    </rdf:RDF>
  </metadata>
  <g
     inkscape:label="Layer 1"
     inkscape:groupmode="layer"
     id="layer1"
     transform="translate(-188.12398,-373.55974)">
    <g
       transform="translate(18.318376,-0.48845613)"
       id="layer1-1"
       inkscape:label="Layer 1" />
    <text
       xml:space="preserve"
       style="font-style:normal;font-weight:normal;font-size:40px;line-height:125%;font-family:sans-serif;letter-spacing:0px;word-spacing:0px;fill:#000000;fill-opacity:1;stroke:none;stroke-width:1px;stroke-linecap:butt;stroke-linejoin:miter;stroke-opacity:1"
       x="368.38861"
       y="336.40527"
       id="text4491"
       sodipodi:linespacing="125%"><tspan
         sodipodi:role="line"
         id="tspan4493"
         x="368.38861"
         y="336.40527" /></text>
    <text
       xml:space="preserve"
       style="font-style:normal;font-weight:normal;font-size:40px;line-height:125%;font-family:sans-serif;letter-spacing:0px;word-spacing:0px;fill:#000000;fill-opacity:1;stroke:none;stroke-width:1px;stroke-linecap:butt;stroke-linejoin:miter;stroke-opacity:1"
       x="378.49014"
       y="335.39511"
       id="text4495"
       sodipodi:linespacing="125%"><tspan
         sodipodi:role="line"
         id="tspan4497"
         x="378.49014"
         y="335.39511" /></text>
    <g
       style="display:inline"
       transform="translate(437.23912,-107.78835)"
       id="layer1-9"
       inkscape:label="Layer 1">
      <path
         style="display:inline;fill:#000000;fill-opacity:0.31372549;stroke:none;stroke-width:0.1;stroke-miterlimit:4;stroke-dasharray:none"
         d="m 168.34766,44.119141 c -9.38275,0.0496 -18.17052,0.833471 -25.88477,1.701171 -11.23558,1.68064 -26.38894,4.391716 -33.60742,6.265626 -24.365081,5.559959 -39.158558,10.634343 -59.722658,18.058593 -2.13659,-0.27599 -4.049468,-0.297433 -7.236328,0.654297 -0.78646,0.49152 -0.783921,1.267855 -1.300781,1.578125 -3.2293,0.21199 -5.342632,-0.02092 -7.039062,0.734375 -1.55933,0.83758 -1.62436,2.684593 -3.78125,2.320313 -2.65956,0.24476 -3.20485,-0.05733 -5.19336,1.046875 -0.81408,1.03026 -0.438923,1.452882 -0.908203,2.007812 -3.94799,0.002 -5.36481,0.396662 -5.99414,0.763672 -1.3125,0.76544 -0.412717,0.98026 -1.566407,2 -2.47894,0.67926 -4.404862,0.689545 -6.2265622,3.390625 -5.03283,0.60949 -8.1944369,0.03866 -9.56054692,-0.328125 -0.6536,-0.17551 -1.96458438,-0.855991 -2.02148438,-0.181641 -0.0173,0.20674 -0.00786,0.29564 -0.00586,0.44336 0.004,0.18317 0.00218,0.366908 0.021484,0.548828 0.0619,0.52215 0.1424444,1.048048 0.3027344,1.548828 0.18059,0.56428 0.4147781,1.083447 0.7363281,1.617187 0.34839,0.578301 1.3035,1.092216 1.25,1.828126 -0.36704,5.04653 -10.2890625,11.160152 -10.2890625,11.160152 l -1.0390625,10.69336 2.2617188,11.79492 c 0,0 -3.8841628,5.14184 -3.6015628,8.07618 0.43025,4.46767 4.064599,8.43565 7.730469,11.02539 3.61421,2.55327 12.7910156,3.55078 12.7910156,3.55078 9.0226004,0.77851 18.5599494,2.13846 26.8808594,2.02344 l 1.402344,-0.0645 3.826172,-0.0723 c -2.10658,-4.82078 -3.205294,-10.0533 -3.220704,-15.34961 -3.5e-4,-20.62031 16.053872,-37.336119 35.857422,-37.335939 19.80324,2.6e-4 35.855837,16.715939 35.855467,37.335939 0.11941,6.34868 -0.35427,14.17245 -1.48047,17.18164 56.2864,0.0295 100.93139,0.74248 158.23243,0.24805 3.21854,0.16744 1.29273,-1.37411 0.66601,-3.39258 -0.14372,-2.98939 1.01256,-9.15228 -1.48242,-7.84766 -4.10706,-0.3369 -8.9597,0.0328 -40.96289,-0.64453 -58.31545,-1.2342 -57.97308,-1.21195 -64.74414,-4.44336 -10.59026,-5.05398 -24.06364,-28.0773 -24.7168,-42.238281 -0.22768,-4.9362 0.21127,-6.326484 2.9961,-9.490234 l 1.52343,-1.730469 -3.94922,-0.220703 C 115.8901,78.412283 102.8268,80.488092 85.625,77.351562 83.45458,76.955812 77.827236,74.48891 77.847656,72.59375 c 7.21756,-7.58214 18.462586,-10.721751 27.509764,-13.425781 30.69479,-9.30385 68.14772,-11.589276 85.33008,-6.166016 12.97066,4.71189 24.13811,12.686013 32.38672,17.689453 3.284,2.18525 6.3773,4.386626 7.17187,5.009766 2.71988,2.14175 5.24876,4.385219 8.89844,6.167969 2.23663,1.01907 1.25996,0.990234 -3.20117,0.990234 -2.33076,-0.19235 -2.34855,0.04324 -3.76563,-0.0059 -1.27946,-0.27921 0.64633,-0.871373 -2.79101,-5.189454 -1.40804,-2.060699 -4.25913,-3.73859 -5.94141,-4.55664 -7.8656,-3.82487 -14.50437,-1.524924 -14.6582,7.816406 0.11129,3.21302 3.56685,4.92467 6.12073,4.618007 2.55387,-0.306663 5.08432,-0.434806 6.0806,-0.131565 1.57233,0.478576 -1.08236,2.246241 -0.89673,2.268136 0.37125,0.04379 0.53939,-1.338638 0.22668,-1.453005 -2.21508,-0.810166 -4.18705,0.66104 -7.84752,-0.09649 -3.66048,-0.757534 -4.09671,-3.328444 -4.09671,-3.328444 -3.63796,-0.006 -45.22914,-1.125247 -53.81166,-1.489917 -5.1434,-0.21853 -7.66986,-0.458629 -13.06055,-0.724609 -1.13068,-0.14356 -3.57102,1.502103 -5.30664,6.652343 -3.61511,12.09549 13.47168,42.371047 26.29492,46.591797 6.27724,2.06613 28.78502,3.08327 75.41407,3.4082 l 15.02343,0.10547 0.4668,-3.4668 c 1.08474,-8.05249 2.13135,-21.62266 2.13867,-27.73633 0.0148,-12.161793 -1.96597,-16.660881 -9.32812,-21.205071 -2.15142,-1.32793 -3.29536,-2.929173 -1.6543,-2.314453 6.09645,2.28364 10.71228,7.847982 11.83008,14.257812 1.16352,6.672112 0.25567,25.061132 -1.95508,39.607422 l -0.2207,1.45703 5.91015,-0.10742 5.91016,-0.10742 0.25977,-2.11914 c 0.14296,-1.1653 0.46536,-3.76458 0.71679,-5.77735 0.80554,-6.44759 3.25081,-13.12325 6.58594,-17.98242 7.64125,-10.18604 18.17646,-15.708273 29.96484,-15.802733 5.35524,0.265982 12.09456,0.372891 22.32032,7.513673 2.14515,2.29146 6.99315,1.2301 10.19922,1.23242 10.26159,0 10.51645,0.11611 6.41015,2.92187 -2.70209,1.84629 -4.50506,2.39846 -7.98437,2.44727 -0.84234,0.0748 -1.80652,-0.11881 -1.63672,0.15039 0.0372,0.059 0.77859,1.49371 1.73047,3.16406 0.95188,1.67036 1.91857,3.60634 2.14843,4.30274 0.22982,0.6964 0.58894,1.26562 0.79688,1.26562 0.20798,0 0.28828,0.14461 0.17969,0.32031 -0.10859,0.1757 0.0633,1.17229 0.38086,2.21485 2.1139,6.94028 2.14008,17.83163 0.0605,24.8164 -1.39731,3.4118 7e-4,-5.4e-4 -1.47461,3.36133 31.35323,-0.77284 53.69573,-1.13119 51.02735,-4.89648 -1.56905,-1.24258 -0.79865,-3.55347 -1.66797,-5.07031 -0.67156,-1.56492 -1.35364,-1.50999 -3.95313,-3.50586 -1.26204,-1.356 1.39341,-8.39912 1.83008,-12.35157 -0.0232,-3.00498 0.10105,-4.36564 -0.45508,-7.70507 -0.79018,-2.65777 -4.62109,-5.50196 -4.62109,-5.50196 -8.01599,-6.23767 -15.01679,-8.23945 -21.07227,-10.38281 C 352.6263,95.9392 343.76684,90.073325 335.61328,87.484375 330.41673,86.252905 324.36523,85.125 324.36523,85.125 l -10.69726,-0.777344 c -13.87442,-1.56971 -29.63365,-5.564518 -46.64258,-5.236328 -16.48058,-8.95471 -43.44634,-23.32256 -61.0293,-29.875 -11.30858,-4.16386 -24.90284,-5.058317 -35.76367,-5.117187 -0.63043,-0.003 -1.25947,-0.003 -1.88476,0 z m 37.55273,5.447265 c 36.93994,15.8521 48.11085,24.326493 60.97852,30.007813 l 3.89257,0.332031 c 2.18382,0.33525 4.08205,0.319491 -2.45703,1.050781 -3.69866,0.31952 -7.4526,0.583979 -10.99414,0.761719 -3.54155,0.17775 -7.04107,0.584617 -10.66601,0.748047 l -3.1875,-2.171875 c -12.30363,-9.86948 -28.2615,-18.328095 -40.5625,-26.078125 -2.30346,-1.44794 -1.41045,-2.644368 1.82617,-4.304688 z m -207.1640619,34.783203 0.00195,0 c 0.26738005,-0.009 0.7561313,0.307709 1.4882813,0.923829 0.76278,0.641849 2.1779269,1.032808 2.7480469,0.923828 0.54016,-0.10326 0.3582143,0.328872 0.2089844,0.570312 1.11506,0.85644 3.4888281,-1.07144 4.5800781,-0.68164 -2.05796,0.65829 -3.6088444,1.371093 -2.4902344,1.371093 0.57332,0 -0.2389063,1.158681 -0.9101563,1.900391 -0.72467,0.80076 2.0255744,0.766796 17.3964849,2.972656 11.22979,1.61158 11.443818,1.702721 8.480468,3.582031 -2.30554,1.46213 -4.725916,1.83144 -16.535156,2.53125 -11.31674,0.67062 -15.8493969,0.719682 -16.1855469,0.175782 -0.4677699,-0.75687 0.2543526,-2.618279 2.10156255,-5.423829 1.70487005,-2.589359 2.06301755,-3.810546 1.1171875,-3.810546 -0.20266,0 -0.96754688,-0.758095 -1.27929687,-1.271485 -0.56299998,-0.92709 -0.80706318,-2.033228 -0.97070318,-3.105469 -0.0139,-0.0917 0,-0.277343 0,-0.277343 1.2e-4,-1.3e-4 0.00391,-0.002 0.00391,-0.002 0.005,-0.24751 0.084851,-0.372177 0.2441406,-0.378907 z m 332.5839819,2.75 c 13.84554,2.14873 23.90312,11.366056 28.07031,15.353511 4.1672,3.98746 4.3342,5.48216 4.20704,6.14258 -0.24126,1.25277 -1.38158,0.95583 -7.75586,-2.02148 -3.49622,-1.63298 -4.01355,-2.0887 -4.76758,-1.56055 -0.45002,0.3152 -1.09974,0.71613 -1.5293,0.70117 -2.39555,-0.44045 -1.0521,-0.44028 0.16992,-0.93359 1.22331,-0.49172 1.2246,-0.49111 -2.4375,-2.70313 -6.5558,-3.959875 -15.95709,-12.784041 -15.95703,-14.978511 z m -184.77929,4.955079 c 3.70047,0.002 8.11102,0.419803 10.375,1.183593 6.24454,2.1067 5.4294,6.404984 0.0142,6.864679 -4.74365,0.40268 -7.0218,2.29948 -12.56305,1.26032 -4.1355,-0.86973 -6.58769,-6.334099 -3.82617,-8.525389 0.67328,-0.53428 3.12185,-0.785043 6,-0.783203 z M 20.962891,93.089844 c -0.85915,-0.0364 -1.583292,1.362475 -2.107422,1.322265 l -1.31836,-0.03516 c -1.24303,-0.14693 -7.13993,-0.330007 -10.7128902,-0.398437 -1.90218,-0.0364 -5.7469813,-0.43855 -5.7070313,-0.0059 0.0688,0.74535 13.0285655,1.246019 15.5156245,1.480469 2.4871,0.23444 -2.556809,1.901702 -0.5,1.820313 0.51423,-0.0203 1.075331,-0.04084 1.75,-0.08594 0.674681,-0.0451 1.68286,-2.212883 2.56836,-1.695312 1.27208,0.743519 -1.510778,1.658917 -0.429688,1.710937 1.103,0.01 1.444924,0.108737 2.126954,-0.158203 0.7214,-0.28237 0.3647,-1.669881 1.4375,-1.400391 1.604859,0.40316 -0.707273,1.36162 0.335937,1.38086 0.72002,-0.0192 1.173009,-0.07919 1.693359,-0.322266 0.50248,-0.23474 0.34525,-1.238468 1.28711,-1.054687 0.43218,0.0843 -0.01934,0.846665 1.189453,0.578124 1.20883,-0.268539 2.018198,-1.482186 2.142578,-1.591796 0.12439,-0.10962 -2.322791,0.782245 -2.900391,0.515625 -0.98786,-0.45599 1.597906,-1.140035 0.541016,-1.171875 -0.48399,-0.0941 -1.017256,-0.0879 -1.503906,0.0332 -0.76115,0.18949 -1.382243,1.36929 -2.101563,1.05664 -0.78108,-0.33946 0.563019,-0.973724 0.886719,-1.490234 -0.3237,-0.20629 -1.101536,-0.168603 -1.628906,-0.03906 -0.91721,0.225341 -1.417983,1.925807 -2.476563,1.373047 -0.58053,-0.30312 1.180024,-1.390712 1.089844,-1.632812 -0.0902,-0.24211 -0.331404,-0.153643 -1.177734,-0.189453 z M 144.48047,93.3125 c -2.91288,0.02269 -3.98035,0.486285 -3.86914,2.691685 0.0721,1.43023 2.87699,3.932106 4.52008,4.147875 0.84413,0.11086 3.44379,0.31265 4.39819,-0.197678 1.79431,-0.959427 0.12277,-0.725446 -2.25799,-1.243346 -1.71759,-0.373636 -3.59579,-1.363619 -2.41047,-1.121093 1.18478,0.242417 5.79257,0.861893 7.19488,0.883253 1.40231,0.02136 3.7891,-0.05592 5.26429,-0.227102 3.01153,-0.349468 2.66962,-1.656493 1.57617,-2.533203 -1.09346,-0.8767 -2.92442,-1.164804 -5,-1.652344 -4.32565,-0.520762 -5.24496,-0.780541 -9.41601,-0.748047 z m 159.2793,3.796875 c -13.18359,0.009 -25.56215,8.141165 -30.34961,21.244145 -6.12788,16.77153 2.49993,35.33503 19.27148,41.46289 16.77124,6.12778 35.33476,-2.50037 41.46289,-19.27149 6.12829,-16.77139 -2.50009,-35.33466 -19.27148,-41.462889 -3.6688,-1.34059 -7.42187,-1.975116 -11.11328,-1.972656 z M 73.619141,97.611328 c -17.85627,-2.3e-4 -32.332272,14.475782 -32.332032,32.332032 1.9e-4,17.85596 14.476072,32.33031 32.332032,32.33008 17.85566,-1.8e-4 32.329889,-14.47442 32.330079,-32.33008 C 105.94945,112.0874 91.475091,97.611518 73.619141,97.611328 Z M 256.4082,104.40039 c -0.0484,0.0351 -0.082,0.59812 -0.082,1.54492 0,1.37716 0.0708,1.94056 0.15625,1.25196 0.0855,-0.68858 0.0855,-1.81532 0,-2.50391 -0.0267,-0.21518 -0.0522,-0.30894 -0.0742,-0.29297 z m 74.66407,1.68331 c -0.87136,-0.007 -2.67418,-0.25128 -2.45006,0.0134 1.6593,1.95961 2.97093,3.10374 4.52861,3.03236 1.60878,-0.0737 3.50898,0.01 4.45455,-0.28585 4.28632,-1.38368 5.35947,-2.8397 5.35947,-2.8397 -10.36251,-0.63024 -9.65344,0.032 -11.89257,0.0798 z m -26.26172,1.11942 -2.50196,7.10743 c -1.47226,4.42515 -1.47311,4.42583 -5.29297,1.29101 l -5.13476,-4.68164 c 4.13306,-2.55812 7.72109,-3.68135 12.92969,-3.7168 z m 2.08984,0.26563 c 2.00337,0.25753 3.13831,0.47098 4.53711,0.9707 1.39878,0.49974 2.60122,1.19641 4.39844,2.34571 l -5.00782,11.11718 c -3.64794,0.0865 -4.49397,-0.25483 -7.15429,-2.7207 z m -233.296874,0.11133 c 1.48533,-0.0107 2.853046,0.23065 4.935546,0.69336 l -0.886718,12.16211 c -3.39669,1.33319 -4.309277,1.30154 -7.654297,-0.10157 l -0.990235,-12.10742 c 1.97007,-0.44566 3.110364,-0.6358 4.595704,-0.64648 z m -6.648438,1.11328 0.08789,7.53516 c 0.13584,4.66166 0.136356,4.66276 -4.527344,3.02929 l -6.429687,-2.63672 c 3.004099,-3.8212 5.98906,-6.10688 10.869141,-7.92773 z m 13.628906,0.36719 c 4.57595,1.63913 7.744769,3.83071 11.017578,7.88281 l -7.173828,2.38672 c -4.37861,1.60536 -4.37885,1.60502 -4.30664,-3.33594 z m 209.789066,2.87304 8.95703,8.8418 c -0.93354,3.61593 -1.63088,4.35024 -5.08985,5.53906 l -10.14062,-6.60156 c 1.78903,-3.62196 2.93155,-5.12685 6.27344,-7.7793 z m 27.11328,0.29102 c 3.73548,3.11001 5.95922,6.25634 7.64258,11.18555 l -7.55664,-0.21875 c -4.66362,0.005 -4.66198,0.005 -2.89844,-4.61133 z m -262.468752,5.86719 11.447266,5.23047 c 0.36413,3.71669 -0.03804,4.64746 -2.878906,6.95117 l -11.792969,-2.72266 c 0.43734,-4.01596 0.995999,-5.82071 3.224609,-9.45898 z m 37.605469,0.65429 c 2.01219,3.5029 2.6265,5.29016 2.96875,9.54297 l -11.951172,2.60156 c -2.27441,-2.8534 -2.513953,-3.73385 -2.158203,-7.34374 z m 274.859373,0.70313 8.58203,0.21289 c 3.76368,0.24314 5.57419,0.0472 5.70313,2.18164 -1.23815,0.45842 -7.94004,-1.07634 -9.11524,1.57617 0.047,0.76587 -2.43911,0.66085 -5.03125,0.51953 -5.11685,0 -3.79325,-1.45185 -2.02148,-2.70507 0.9299,-0.65776 0.61633,-1.74564 1.88281,-1.78516 z m -373.4296856,1.5957 c 0.10752,-0.002 0.2218068,0.0105 0.3417968,0.0371 9.3797001,2.07426 10.4437494,2.44611 12.1308594,4.25391 0.4989,0.53465 0.7916506,1.15917 0.6503906,1.38672 -0.29169,0.47108 -3.1744262,0.47097 -6.5664062,-0.004 -1.27123,-0.17751 -3.0454094,-0.42565 -3.9433594,-0.55273 -1.94656,-0.27547 -2.7988281,-1.02002 -2.7988281,-2.44727 0,-0.5781 -0.1919444,-1.24467 -0.4277344,-1.48047 -0.54393,-0.54395 -0.1393187,-1.18393 0.6132813,-1.19336 z m 289.5273456,0.18164 5.80273,4.84571 c 3.66766,2.88068 3.66676,2.88175 -0.57422,5.41796 l -6.14062,3.25196 c -1.01142,-4.75428 -0.81417,-8.60129 0.91211,-13.51563 z m 41.89062,4.22852 c 0.6878,3.98072 0.64979,5.8685 -0.48828,9.98047 l -12.11523,-1.65821 c -1.15701,-3.46067 -1.08085,-4.36816 0.49219,-7.63672 z m -21.63867,1.54101 c 0.29987,-0.0149 0.60845,0.0292 0.9082,0.13868 1.19898,0.43809 1.81505,1.76586 1.37696,2.96484 -0.43809,1.19898 -1.76587,1.81504 -2.96485,1.37695 -1.19898,-0.43809 -1.81504,-1.76391 -1.37695,-2.96289 0.32857,-0.89924 1.15704,-1.47272 2.05664,-1.51758 z m -230.103514,0.44336 c 1.27651,0 2.310546,1.03404 2.310546,2.31055 0,1.27651 -1.034036,2.3125 -2.310546,2.3125 -1.27651,0 -2.3125,-1.03599 -2.3125,-2.3125 0,-1.27651 1.03599,-2.31055 2.3125,-2.31055 z m -21.902344,1.71094 7.111328,2.5625 c 4.43355,1.447 4.435246,1.44555 1.322266,5.2832 l -4.654297,5.16211 c -2.58163,-4.11841 -3.714157,-7.79949 -3.779297,-13.00781 z m 43.480469,1.57617 c -0.35321,4.84781 -1.615478,8.48776 -4.642579,12.72656 l -4.220703,-6.27148 c -2.7198,-3.78842 -2.719123,-3.78874 2.060547,-5.04297 z m 198.835939,0.18946 c 2.85366,2.27409 3.28363,3.07945 3.74219,6.67773 l -9.78711,7.16602 c -2.74293,-2.96572 -3.74105,-4.57331 -5.02344,-8.64258 z m -229.070314,3.71289 c 3.4608,1.15661 4.14102,1.76396 5.80664,4.98632 l -6.734375,10.08985 c -3.59415,-1.84425 -5.082553,-3.01056 -7.683593,-6.39258 z m 17.058593,0.98828 7.66211,9.40625 c -2.82012,2.89243 -4.373474,3.97011 -8.371094,5.46094 L 75.65625,139.70117 c 2.1237,-2.96729 2.904799,-3.44023 6.474609,-4.08398 z m 232.048831,0.80469 c 0.67226,-0.005 1.59621,0.0816 2.82617,0.19726 l 6.87305,1.00977 c -1.99548,4.43216 -4.42858,7.41689 -8.72657,10.35937 l -1.8125,-7.33984 c -0.94084,-3.3688 -1.17692,-4.21112 0.83985,-4.22656 z m -7.06641,0.96289 c 0.74013,0.005 1.59604,0.12249 2.71289,0.3164 l 3.9668,11.46289 c -3.6415,1.7489 -5.46792,2.2295 -9.73438,2.25782 l -1.71484,-12.10938 c 2.07148,-1.41503 3.14125,-1.93961 4.76953,-1.92773 z m -8.07812,2.97461 c 0.0898,0.006 0.17405,0.0244 0.25195,0.0586 0.62321,0.27426 0.90386,1.47705 1.4668,3.88281 l 1.22851,6.83984 c -4.83662,-0.48279 -8.43941,-1.84101 -12.5957,-4.98046 l 6.38086,-4.05274 c 1.68867,-1.14514 2.63902,-1.78849 3.26758,-1.74804 z m -225.871098,1.42773 c 0.679481,0.0437 1.358491,1.07808 2.712891,3.14453 l 3.5,6.00195 c -4.70856,1.20643 -8.559715,1.16688 -13.541015,-0.35547 l 4.603515,-5.99609 c 1.36355,-1.89159 2.04512,-2.83863 2.724609,-2.79492 z"
         transform="translate(-237.04185,437.2312)"
         id="path4860"
         inkscape:connector-curvature="0"
         sodipodi:nodetypes="ccccccccccccccccccsccccsscccccscccccssscccscccccccccsczssszcsccsccccsssccccccccccscsscsscccccccccccccccccccccscccccccccccscssssssccccccccscccscccsscccccccscssccscccsssccccccccccssssssssccsssscssssscssccccscssccccccccccccccccccccccccccccccccccccccccccccccccccccsccccccsssccccccscccsscssscssssccccccccccccccccccccccccccccccccccccccccccccccccccccccccc" />
    </g>
  </g>
</svg>
