<?xml version="1.0" encoding="UTF-8" standalone="no"?>
<!-- Created with Inkscape (http://www.inkscape.org/) -->

<svg
   xmlns:dc="http://purl.org/dc/elements/1.1/"
   xmlns:cc="http://creativecommons.org/ns#"
   xmlns:rdf="http://www.w3.org/1999/02/22-rdf-syntax-ns#"
   xmlns:svg="http://www.w3.org/2000/svg"
   xmlns="http://www.w3.org/2000/svg"
   xmlns:sodipodi="http://sodipodi.sourceforge.net/DTD/sodipodi-0.dtd"
   xmlns:inkscape="http://www.inkscape.org/namespaces/inkscape"
   width="112.8889mm"
   height="52.211117mm"
   viewBox="0 0 399.99998 185.00001"
   id="svg2"
   version="1.1"
   inkscape:version="0.91 r13725"
   sodipodi:docname="heliostat.svg">
  <defs
     id="defs4">
    <marker
       inkscape:stockid="Arrow1Lstart"
       orient="auto"
       refY="0"
       refX="0"
       id="Arrow1Lstart"
       style="overflow:visible"
       inkscape:isstock="true">
      <path
         id="path4876"
         d="M 0,0 5,-5 -12.5,0 5,5 0,0 Z"
         style="fill:#000000;fill-opacity:1;fill-rule:evenodd;stroke:#000000;stroke-width:1pt;stroke-opacity:1"
         transform="matrix(0.8,0,0,0.8,10,0)"
         inkscape:connector-curvature="0" />
    </marker>
    <inkscape:path-effect
       effect="powerstroke"
       id="path-effect4870"
       is_visible="true"
       offset_points="0,0.14586916"
       sort_points="true"
       interpolator_type="Linear"
       interpolator_beta="0.2"
       start_linecap_type="zerowidth"
       linejoin_type="round"
       miter_limit="4"
       end_linecap_type="zerowidth"
       cusp_linecap_type="round" />
    <inkscape:path-effect
       effect="powerstroke"
       id="path-effect4537"
       is_visible="true"
       offset_points="0,0.5"
       sort_points="true"
       interpolator_type="Linear"
       interpolator_beta="0.2"
       start_linecap_type="zerowidth"
       linejoin_type="round"
       miter_limit="4"
       end_linecap_type="zerowidth"
       cusp_linecap_type="round" />
  </defs>
  <sodipodi:namedview
     id="base"
     pagecolor="#ffffff"
     bordercolor="#666666"
     borderopacity="1.0"
     inkscape:pageopacity="0.0"
     inkscape:pageshadow="2"
     inkscape:zoom="1.979899"
     inkscape:cx="190.53484"
     inkscape:cy="75.866351"
     inkscape:document-units="px"
     inkscape:current-layer="layer1"
     showgrid="false"
     inkscape:snap-object-midpoints="true"
     inkscape:object-paths="true"
     inkscape:snap-intersection-paths="true"
     inkscape:object-nodes="true"
     inkscape:snap-smooth-nodes="true"
     inkscape:snap-midpoints="true"
     fit-margin-top="0"
     fit-margin-left="0"
     fit-margin-right="0"
     fit-margin-bottom="0"
     inkscape:window-width="1440"
     inkscape:window-height="800"
     inkscape:window-x="0"
     inkscape:window-y="1"
     inkscape:window-maximized="1"
     inkscape:snap-center="true"
     inkscape:snap-others="true"
     inkscape:snap-nodes="true"
     objecttolerance="10"
     guidetolerance="10"
     inkscape:snap-bbox="true"
     inkscape:snap-global="true"
     inkscape:bbox-paths="true"
     inkscape:snap-bbox-edge-midpoints="true"
     inkscape:bbox-nodes="true"
     inkscape:snap-bbox-midpoints="true"
     showguides="false" />
  <metadata
     id="metadata7">
    <rdf:RDF>
      <cc:Work
         rdf:about="">
        <dc:format>image/svg+xml</dc:format>
        <dc:type
           rdf:resource="http://purl.org/dc/dcmitype/StillImage" />
        <dc:title></dc:title>
      </cc:Work>
    </rdf:RDF>
  </metadata>
  <g
     inkscape:label="Layer 1"
     inkscape:groupmode="layer"
     id="layer1"
     transform="translate(-593.44971,-178.43156)">
    <path
       id="path5389"
       transform="translate(593.44968,178.43156)"
       style="fill:#000000;fill-opacity:0.31372549;stroke:none;stroke-width:15;stroke-linejoin:round;stroke-miterlimit:4;stroke-dasharray:none"
       d="m 0,70 0,115 100.89258,0 52.5293,0 42.22656,0 8,0 L 400,185 400,70 288.33398,70 385,170 l -90.49023,0 0,-19.84961 4.07226,0 0,-10.10156 0,-31.94141 -9.0918,0 0,31.94141 -22.3457,0 0,10.10156 4.56641,0 0,19.84961 -26.0625,0 -7.63086,0 c 0,0 -9.4929,-6.31743 -9.93555,-9.95703 -0.44265,-3.6396 3.03125,-6.48592 3.03125,-9.95508 0,-3.46916 -3.56457,-6.27309 -3.03125,-9.95703 0.53332,-3.68394 10.56641,-9.95703 10.56641,-9.95703 l 7,0 22.59375,0 0,-10.3086 -64.59375,0 -8,0 -25.37696,0 0,10.3086 25.37696,0 7,0 c 0,0 10.03308,6.27309 10.5664,9.95703 0.53332,3.68394 -3.03125,6.48787 -3.03125,9.95703 0,3.46916 3.4739,6.31548 3.03125,9.95508 C 212.77219,163.68257 203.2793,170 203.2793,170 l -7.63086,0 -42.22656,0 0,-83.490234 -52.5293,0 0,83.490234 L 15,170 111.66602,70 0,70 Z m 143.40039,48.91602 a 5.0507657,5.0507657 0 0 1 5.05078,5.05078 5.0507657,5.0507657 0 0 1 -5.05078,5.05078 5.0507657,5.0507657 0 0 1 -5.05078,-5.05078 5.0507657,5.0507657 0 0 1 5.05078,-5.05078 z m 133.31055,31.23437 12.77929,0 0.0195,0 0,19.84961 -12.79883,0 0,-19.84961 z M 160,20 155,25.171875 155,75 245,75 245,25.171875 240,20 l 0,22.5 -37.5,0 0,-22.5 -5,0 0,22.5 -37.5,0 0,-22.5 z m 0,27.5 37.5,0 0,22.5 -37.5,0 0,-22.5 z m 42.5,0 37.5,0 0,22.5 -37.5,0 0,-22.5 z M 15.00001,0 l 112.04492,54.0918 27.95508,-28.91993 0,-10.17187 90,0 0,10.17187 L 272.95509,54.0918 385.00001,0 l -145,0 -80,0 -145,0 z" />
    <g
       transform="translate(18.318376,-0.48845613)"
       id="layer1-1"
       inkscape:label="Layer 1" />
    <g
       style="font-style:normal;font-weight:normal;font-size:40px;line-height:125%;font-family:sans-serif;letter-spacing:0px;word-spacing:0px;fill:#000000;fill-opacity:1;stroke:none;stroke-width:1px;stroke-linecap:butt;stroke-linejoin:miter;stroke-opacity:1"
       id="text4491" />
    <g
       style="font-style:normal;font-weight:normal;font-size:40px;line-height:125%;font-family:sans-serif;letter-spacing:0px;word-spacing:0px;fill:#000000;fill-opacity:1;stroke:none;stroke-width:1px;stroke-linecap:butt;stroke-linejoin:miter;stroke-opacity:1"
       id="text4495" />
  </g>
</svg>
