<?xml version="1.0" encoding="UTF-8" standalone="no"?>
<!-- Created with Inkscape (http://www.inkscape.org/) -->

<svg
   xmlns:dc="http://purl.org/dc/elements/1.1/"
   xmlns:cc="http://creativecommons.org/ns#"
   xmlns:rdf="http://www.w3.org/1999/02/22-rdf-syntax-ns#"
   xmlns:svg="http://www.w3.org/2000/svg"
   xmlns="http://www.w3.org/2000/svg"
   xmlns:sodipodi="http://sodipodi.sourceforge.net/DTD/sodipodi-0.dtd"
   xmlns:inkscape="http://www.inkscape.org/namespaces/inkscape"
   width="112.88915mm"
   height="112.88897mm"
   viewBox="0 0 400.00088 400.00023"
   id="svg2"
   version="1.1"
   inkscape:version="0.91 r13725"
   sodipodi:docname="mandelbrot.svg">
  <defs
     id="defs4" />
  <sodipodi:namedview
     id="base"
     pagecolor="#ffffff"
     bordercolor="#666666"
     borderopacity="1.0"
     inkscape:pageopacity="0.0"
     inkscape:pageshadow="2"
     inkscape:zoom="1.4"
     inkscape:cx="187.28744"
     inkscape:cy="237.12742"
     inkscape:document-units="px"
     inkscape:current-layer="layer1"
     showgrid="true"
     fit-margin-top="0"
     fit-margin-left="0"
     fit-margin-right="0"
     fit-margin-bottom="0"
     inkscape:window-width="1440"
     inkscape:window-height="800"
     inkscape:window-x="0"
     inkscape:window-y="1"
     inkscape:window-maximized="1">
    <inkscape:grid
       type="xygrid"
       id="grid4221"
       originx="-2.4549977"
       originy="-2.0595553" />
  </sodipodi:namedview>
  <metadata
     id="metadata7">
    <rdf:RDF>
      <cc:Work
         rdf:about="">
        <dc:format>image/svg+xml</dc:format>
        <dc:type
           rdf:resource="http://purl.org/dc/dcmitype/StillImage" />
        <dc:title></dc:title>
      </cc:Work>
    </rdf:RDF>
  </metadata>
  <g
     inkscape:label="Layer 1"
     inkscape:groupmode="layer"
     id="layer1"
     transform="translate(-79.240852,-210.65941)">
    <path
       style="fill:#000000;fill-opacity:0.31372549;stroke:none;stroke-width:0.1;stroke-miterlimit:4;stroke-dasharray:none"
       d="m 278.13057,210.66106 a 1.9437517,1.9218461 0 0 0 -1.83154,1.38868 1.9437517,1.9218461 0 0 0 1.32552,2.37955 1.9437517,1.9218461 0 0 0 0.58747,0.0732 7.8172617,7.7291633 0 0 0 -5.16385,5.18619 1.0563868,1.0444816 0 0 0 -0.76026,-0.96158 1.0563868,1.0444816 0 0 0 -1.30824,0.71264 1.0563868,1.0444816 0 0 0 0.72078,1.29349 1.0563868,1.0444816 0 0 0 1.19963,-0.46614 7.8172617,7.7291633 0 0 0 0.10613,3.62179 0.61270406,0.60579905 0 0 0 -0.36531,-0.28798 0.61270406,0.60579905 0 0 0 -0.7578,0.41245 0.61270406,0.60579905 0 0 0 0.41716,0.74925 0.61270406,0.60579905 0 0 0 0.76026,-0.41245 0.61270406,0.60579905 0 0 0 0.0222,-0.1928 7.8172617,7.7291633 0 0 0 0.94045,1.97196 0.38029894,0.37601307 0 0 0 -0.15798,-0.0927 0.38029894,0.37601307 0 0 0 -0.47146,0.25869 0.38029894,0.37601307 0 0 0 0.25918,0.4637 0.38029894,0.37601307 0 0 0 0.47145,-0.25625 0.38029894,0.37601307 0 0 0 -0.0173,-0.25382 7.8172617,7.7291633 0 0 0 1.05647,1.22272 0.25353237,0.25067513 0 0 0 -0.0839,-0.0415 0.25353237,0.25067513 0 0 0 -0.31347,0.17085 0.25353237,0.25067513 0 0 0 0.17279,0.30994 0.25353237,0.25067513 0 0 0 0.31347,-0.17084 0.25353237,0.25067513 0 0 0 -0.0642,-0.24893 7.8172617,7.7291633 0 0 0 3.18421,1.80601 7.8172617,7.7291633 0 0 0 1.14286,0.22697 167.00329,165.12121 0 0 0 -45.60325,16.05887 11.536317,11.406306 0 0 0 2.93243,-5.25207 0.21825394,0.21579428 0 0 0 0.19993,0.20256 0.21825394,0.21579428 0 0 0 0.2345,-0.19525 0.21825394,0.21579428 0 0 0 -0.19747,-0.23429 0.21825394,0.21579428 0 0 0 -0.20734,0.10495 11.536317,11.406306 0 0 0 0.21721,-1.22273 0.37415024,0.36993367 0 0 0 0.33817,0.32216 0.37415024,0.36993367 0 0 0 0.40481,-0.3368 0.37415024,0.36993367 0 0 0 -0.33817,-0.40025 0.37415024,0.36993367 0 0 0 -0.37765,0.21965 11.536317,11.406306 0 0 0 0.0197,-0.12935 11.536317,11.406306 0 0 0 0.007,-1.91584 0.5612257,0.55490084 0 0 0 0.47146,0.349 0.5612257,0.55490084 0 0 0 0.60969,-0.50276 0.5612257,0.55490084 0 0 0 -0.51096,-0.6028 0.5612257,0.55490084 0 0 0 -0.60475,0.48322 11.536317,11.406306 0 0 0 -0.8664,-3.29963 0.90419753,0.89400747 0 0 0 0.65659,0.37096 0.90419753,0.89400747 0 0 0 0.97994,-0.81027 0.90419753,0.89400747 0 0 0 -0.8195,-0.97133 0.90419753,0.89400747 0 0 0 -0.98241,0.8127 0.90419753,0.89400747 0 0 0 0.0247,0.29531 11.536317,11.406306 0 0 0 -3.56927,-4.35151 1.5589616,1.5413925 0 0 0 0.43197,0.1025 1.5589616,1.5413925 0 0 0 1.69083,-1.39844 1.5589616,1.5413925 0 0 0 -1.41438,-1.67179 1.5589616,1.5413925 0 0 0 -1.69083,1.39844 1.5589616,1.5413925 0 0 0 0.37026,1.13974 11.536317,11.406306 0 0 0 -5.25271,-1.79869 11.536317,11.406306 0 0 0 -5.33417,0.78098 2.8684898,2.8361627 0 0 0 1.06141,-1.95977 2.8684898,2.8361627 0 0 0 -2.60168,-3.0751 2.8684898,2.8361627 0 0 0 -3.11262,2.57234 2.8684898,2.8361627 0 0 0 2.60168,3.07755 2.8684898,2.8361627 0 0 0 0.87133,-0.0585 11.536317,11.406306 0 0 0 -5.99322,8.95685 1.5589618,1.5413927 0 0 0 -1.37735,-1.18124 1.5589618,1.5413927 0 0 0 -1.69084,1.40088 1.5589618,1.5413927 0 0 0 1.41438,1.67179 1.5589618,1.5413927 0 0 0 1.60444,-1.01283 11.536317,11.406306 0 0 0 1.18977,5.21548 0.90419746,0.8940074 0 0 0 -0.61217,-0.31484 0.90419746,0.8940074 0 0 0 -0.97994,0.81027 0.90419746,0.8940074 0 0 0 0.8195,0.9689 0.90419746,0.8940074 0 0 0 0.98241,-0.81027 0.90419746,0.8940074 0 0 0 -0.0222,-0.2831 11.536317,11.406306 0 0 0 1.92534,2.58943 0.5612258,0.55490094 0 0 0 -0.2567,-0.0879 0.5612258,0.55490094 0 0 0 -0.60723,0.50275 0.5612258,0.55490094 0 0 0 0.50848,0.60282 0.5612258,0.55490094 0 0 0 0.60969,-0.50276 0.5612258,0.55490094 0 0 0 -0.0987,-0.36607 11.536317,11.406306 0 0 0 1.8809,1.47654 0.37415018,0.36993361 0 0 0 -0.13329,-0.0366 0.37415018,0.36993361 0 0 0 -0.40729,0.33436 0.37415018,0.36993361 0 0 0 0.34065,0.40269 0.37415018,0.36993361 0 0 0 0.40481,-0.3368 0.37415018,0.36993361 0 0 0 -0.17279,-0.34656 11.536317,11.406306 0 0 0 5.13917,1.73036 11.536317,11.406306 0 0 0 3.77413,-0.30019 167.00329,165.12121 0 0 0 -56.9405,54.0901 22.568523,22.314182 0 0 0 -0.64425,-11.42425 0.42697069,0.42215885 0 0 0 0.54304,0.13667 0.42697069,0.42215885 0 0 0 0.19007,-0.56621 0.42697069,0.42215885 0 0 0 -0.57267,-0.18793 0.42697069,0.42215885 0 0 0 -0.23449,0.38806 22.568523,22.314182 0 0 0 -0.90836,-2.25752 0.731951,0.72370211 0 0 0 0.89355,0.19281 0.731951,0.72370211 0 0 0 0.32829,-0.97134 0.731951,0.72370211 0 0 0 -0.98241,-0.3246 0.731951,0.72370211 0 0 0 -0.39741,0.75169 22.568523,22.314182 0 0 0 -0.1012,-0.23429 22.568523,22.314182 0 0 0 -1.97965,-3.19957 1.0979271,1.0855538 0 0 0 1.15027,0.1025 1.0979271,1.0855538 0 0 0 0.49121,-1.45701 1.0979271,1.0855538 0 0 0 -1.47115,-0.48568 1.0979271,1.0855538 0 0 0 -0.50849,1.41797 22.568523,22.314182 0 0 0 -4.86764,-4.61754 1.7688839,1.7489491 0 0 0 1.47609,-0.0439 1.7688839,1.7489491 0 0 0 0.79235,-2.34782 1.7688839,1.7489491 0 0 0 -2.37458,-0.78097 1.7688839,1.7489491 0 0 0 -0.78988,2.34537 1.7688839,1.7489491 0 0 0 0.34557,0.46615 22.568523,22.314182 0 0 0 -10.45851,-3.62179 3.0498003,3.0154299 0 0 0 0.82444,-0.26846 3.0498003,3.0154299 0 0 0 1.36254,-4.04645 3.0498003,3.0154299 0 0 0 -4.0901,-1.34962 3.0498003,3.0154299 0 0 0 -1.36501,4.04643 3.0498003,3.0154299 0 0 0 1.80192,1.52047 22.568523,22.314182 0 0 0 -10.61896,2.33562 22.568523,22.314182 0 0 0 -8.07159,6.71398 5.6116333,5.5483917 0 0 0 -0.26412,-4.33931 5.6116333,5.5483917 0 0 0 -7.52855,-2.48205 5.6116333,5.5483917 0 0 0 -2.5128,7.4437 5.6116333,5.5483917 0 0 0 7.52855,2.48205 5.6116333,5.5483917 0 0 0 1.38969,-0.97866 22.568523,22.314182 0 0 0 -0.68127,20.99856 3.0498006,3.0154302 0 0 0 -3.51991,-0.56865 3.0498006,3.0154302 0 0 0 -1.36254,4.04645 3.0498006,3.0154302 0 0 0 4.0901,1.34963 3.0498006,3.0154302 0 0 0 1.61925,-3.31428 22.568523,22.314182 0 0 0 7.4002,7.48031 1.7688837,1.7489489 0 0 0 -1.3502,0.0927 1.7688837,1.7489489 0 0 0 -0.78988,2.34782 1.7688837,1.7489489 0 0 0 2.37211,0.78098 1.7688837,1.7489489 0 0 0 0.79234,-2.34538 1.7688837,1.7489489 0 0 0 -0.33323,-0.4515 22.568523,22.314182 0 0 0 5.89696,2.36002 1.0979273,1.085554 0 0 0 -0.51589,0.1147 1.0979273,1.085554 0 0 0 -0.49121,1.45457 1.0979273,1.085554 0 0 0 1.47362,0.48568 1.0979273,1.085554 0 0 0 0.49121,-1.45701 1.0979273,1.085554 0 0 0 -0.54305,-0.50764 22.568523,22.314182 0 0 0 15.09166,-1.78649 22.568523,22.314182 0 0 0 4.79359,-3.2313 167.00329,165.12121 0 0 0 -12.42828,30.78764 3.5539542,3.5139021 0 0 0 -0.46406,-2.36245 0.06723675,0.06647901 0 0 0 0.0889,0.002 0.06723675,0.06647901 0 0 0 0.007,-0.0928 0.06723675,0.06647901 0 0 0 -0.0938,-0.007 0.06723675,0.06647901 0 0 0 -0.0247,0.0586 3.5539542,3.5139021 0 0 0 -0.21722,-0.30508 0.1152632,0.11396422 0 0 0 0.14317,-0.002 0.1152632,0.11396422 0 0 0 0.0148,-0.16108 0.1152632,0.11396422 0 0 0 -0.16292,-0.0146 0.1152632,0.11396422 0 0 0 -0.0345,0.12204 3.5539542,3.5139021 0 0 0 -0.0222,-0.0269 3.5539542,3.5139021 0 0 0 -0.41962,-0.41977 0.1728949,0.17094642 0 0 0 0.18019,-0.0244 0.1728949,0.17094642 0 0 0 0.0247,-0.24162 0.1728949,0.17094642 0 0 0 -0.24437,-0.022 0.1728949,0.17094642 0 0 0 -0.0272,0.23429 3.5539542,3.5139021 0 0 0 -0.9133,-0.53692 0.27855305,0.27541383 0 0 0 0.22462,-0.0585 0.27855305,0.27541383 0 0 0 0.037,-0.38804 0.27855305,0.27541383 0 0 0 -0.39247,-0.0366 0.27855305,0.27541383 0 0 0 -0.037,0.38804 0.27855305,0.27541383 0 0 0 0.0716,0.0585 3.5539542,3.5139021 0 0 0 -1.73527,-0.18793 0.48026403,0.47485159 0 0 0 0.11601,-0.0683 0.48026403,0.47485159 0 0 0 0.0642,-0.6687 0.48026403,0.47485159 0 0 0 -0.67634,-0.0635 0.48026403,0.47485159 0 0 0 -0.0642,0.66871 0.48026403,0.47485159 0 0 0 0.33323,0.17084 3.5539542,3.5139021 0 0 0 -1.54521,0.72974 3.5539542,3.5139021 0 0 0 -0.99722,1.31545 0.88368594,0.87372704 0 0 0 -0.19747,-0.65651 0.88368594,0.87372704 0 0 0 -1.24406,-0.11715 0.88368594,0.87372704 0 0 0 -0.11602,1.23004 0.88368594,0.87372704 0 0 0 1.24406,0.11715 0.88368594,0.87372704 0 0 0 0.17526,-0.19525 3.5539542,3.5139021 0 0 0 0.65412,3.24106 0.48026411,0.47485166 0 0 0 -0.56032,0.0366 0.48026411,0.47485166 0 0 0 -0.0642,0.66872 0.48026411,0.47485166 0 0 0 0.67633,0.0635 0.48026411,0.47485166 0 0 0 0.12836,-0.56622 3.5539542,3.5139021 0 0 0 1.40451,0.88836 0.27855304,0.27541382 0 0 0 -0.20241,0.061 0.27855304,0.27541382 0 0 0 -0.037,0.38806 0.27855304,0.27541382 0 0 0 0.39248,0.0366 0.27855304,0.27541382 0 0 0 0.0345,-0.38805 0.27855304,0.27541382 0 0 0 -0.0666,-0.0585 3.5539542,3.5139021 0 0 0 0.98982,0.15619 0.17289493,0.17094645 0 0 0 -0.074,0.0342 0.17289493,0.17094645 0 0 0 -0.0247,0.2416 0.17289493,0.17094645 0 0 0 0.24437,0.022 0.17289493,0.17094645 0 0 0 0.0222,-0.24161 0.17289493,0.17094645 0 0 0 -0.10121,-0.0585 3.5539542,3.5139021 0 0 0 0.7257,-0.0756 0.11526317,0.11396419 0 0 0 -0.0272,0.0171 0.11526317,0.11396419 0 0 0 -0.0148,0.16109 0.11526317,0.11396419 0 0 0 0.16045,0.0146 0.11526317,0.11396419 0 0 0 0.0173,-0.16108 0.11526317,0.11396419 0 0 0 -0.0913,-0.0415 3.5539542,3.5139021 0 0 0 1.48102,-0.71995 3.5539542,3.5139021 0 0 0 1.07128,-1.51316 167.00329,165.12121 0 0 0 -4.94169,24.0273 7.81726,7.7291616 0 0 0 -1.99692,-3.86828 0.14789363,0.14622691 0 0 0 0.19007,-0.0366 0.14789363,0.14622691 0 0 0 -0.0247,-0.205 0.14789363,0.14622691 0 0 0 -0.20734,0.0244 0.14789363,0.14622691 0 0 0 -0.0148,0.1562 7.81726,7.7291616 0 0 0 -0.6245,-0.57353 0.25353237,0.25067513 0 0 0 0.30855,-0.0708 0.25353237,0.25067513 0 0 0 -0.042,-0.35145 0.25353237,0.25067513 0 0 0 -0.35791,0.0439 0.25353237,0.25067513 0 0 0 -0.01,0.29286 7.81726,7.7291616 0 0 0 -0.0691,-0.0585 7.81726,7.7291616 0 0 0 -1.09843,-0.7102 0.38029878,0.37601292 0 0 0 0.3752,-0.13668 0.38029878,0.37601292 0 0 0 -0.0667,-0.5296 l 0,0.002 a 0.38029878,0.37601292 0 0 0 -0.53317,0.0635 0.38029878,0.37601292 0 0 0 0.0543,0.51984 7.81726,7.7291616 0 0 0 -2.2166,-0.72972 0.61270395,0.60579894 0 0 0 0.45418,-0.23186 0.61270395,0.60579894 0 0 0 -0.10367,-0.84932 0.61270395,0.60579894 0 0 0 -0.86146,0.10252 0.61270395,0.60579894 0 0 0 0.10614,0.85175 0.61270395,0.60579894 0 0 0 0.17772,0.0952 7.81726,7.7291616 0 0 0 -3.81611,0.40269 1.0563864,1.0444812 0 0 0 0.21722,-0.20501 1.0563864,1.0444812 0 0 0 -0.18266,-1.46678 1.0563864,1.0444812 0 0 0 -1.48103,0.1806 1.0563864,1.0444812 0 0 0 0.18019,1.46679 1.0563864,1.0444812 0 0 0 0.79235,0.20988 7.81726,7.7291616 0 0 0 -2.96945,2.29169 7.81726,7.7291616 0 0 0 -1.51559,3.28742 1.9437512,1.9218457 0 0 0 -0.73557,-1.31789 1.9437512,1.9218457 0 0 0 -2.73003,0.32948 1.9437512,1.9218457 0 0 0 0.33323,2.69681 1.9437512,1.9218457 0 0 0 2.73003,-0.32948 1.9437512,1.9218457 0 0 0 0.28633,-0.51007 7.81726,7.7291616 0 0 0 2.94477,6.67005 1.0563866,1.0444814 0 0 0 -1.18729,0.33923 1.0563866,1.0444814 0 0 0 0.18266,1.46434 1.0563866,1.0444814 0 0 0 1.48103,-0.17817 1.0563866,1.0444814 0 0 0 0.01,-1.27396 7.81726,7.7291616 0 0 0 3.44092,1.252 0.61270391,0.6057989 0 0 0 -0.40975,0.22697 0.61270391,0.6057989 0 0 0 0.10614,0.85176 0.61270391,0.6057989 0 0 0 0.85899,-0.10494 0.61270391,0.6057989 0 0 0 -0.10367,-0.84932 0.61270391,0.6057989 0 0 0 -0.17278,-0.0928 7.81726,7.7291616 0 0 0 2.19932,-0.12933 0.38029884,0.37601298 0 0 0 -0.14317,0.10982 0.38029884,0.37601298 0 0 0 0.0642,0.52959 0.38029884,0.37601298 0 0 0 0.53564,-0.0659 0.38029884,0.37601298 0 0 0 -0.0667,-0.52717 0.38029884,0.37601298 0 0 0 -0.24683,-0.0781 7.81726,7.7291616 0 0 0 1.54273,-0.51495 0.25353231,0.25067507 0 0 0 -0.0716,0.061 0.25353231,0.25067507 0 0 0 0.0444,0.35389 0.25353231,0.25067507 0 0 0 0.35545,-0.0439 0.25353231,0.25067507 0 0 0 -0.0444,-0.35144 0.25353231,0.25067507 0 0 0 -0.23943,-0.0391 7.81726,7.7291616 0 0 0 2.86579,-2.24287 7.81726,7.7291616 0 0 0 0.81456,-1.27397 167.00329,165.12121 0 0 0 -0.80469,15.88316 167.00329,165.12121 0 0 0 0.29621,8.26127 3.5539542,3.5139021 0 0 0 -1.6785,-2.30143 0.06723675,0.06647901 0 0 0 0.079,-0.0391 0.06723675,0.06647901 0 0 0 -0.037,-0.0854 0.06723675,0.06647901 0 0 0 -0.0889,0.0366 0.06723675,0.06647901 0 0 0 0.01,0.0635 3.5539542,3.5139021 0 0 0 -0.34063,-0.16596 0.1152632,0.11396422 0 0 0 0.12589,-0.0708 0.1152632,0.11396422 0 0 0 -0.0642,-0.14644 0.1152632,0.11396422 0 0 0 -0.15057,0.0635 0.1152632,0.11396422 0 0 0 0.0321,0.12934 3.5539542,3.5139021 0 0 0 -0.037,-0.0171 3.5539542,3.5139021 0 0 0 -0.5702,-0.17328 0.1728949,0.17094642 0 0 0 0.14564,-0.10738 0.1728949,0.17094642 0 0 0 -0.0963,-0.22209 0.1728949,0.17094642 0 0 0 -0.22462,0.0952 0.1728949,0.17094642 0 0 0 0.0913,0.21965 3.5539542,3.5139021 0 0 0 -1.0614,-0.0415 0.27855305,0.27541383 0 0 0 0.16785,-0.15864 0.27855305,0.27541383 0 0 0 -0.15304,-0.35876 0.27855305,0.27541383 0 0 0 -0.36285,0.15376 0.27855305,0.27541383 0 0 0 0.15551,0.35876 0.27855305,0.27541383 0 0 0 0.0889,0.0195 3.5539542,3.5139021 0 0 0 -1.61432,0.65407 0.48026403,0.47485159 0 0 0 0.0691,-0.11714 0.48026403,0.47485159 0 0 0 -0.26905,-0.61746 0.48026403,0.47485159 0 0 0 -0.6245,0.26358 0.48026403,0.47485159 0 0 0 0.26659,0.61745 0.48026403,0.47485159 0 0 0 0.37519,-0.007 3.5539542,3.5139021 0 0 0 -1.00463,1.3716 3.5539542,3.5139021 0 0 0 -0.2419,1.62541 0.88368594,0.87372704 0 0 0 -0.49121,-0.48323 0.88368594,0.87372704 0 0 0 -1.14779,0.48566 0.88368594,0.87372704 0 0 0 0.4912,1.13486 0.88368594,0.87372704 0 0 0 1.1478,-0.48323 0.88368594,0.87372704 0 0 0 0.0617,-0.25869 3.5539542,3.5139021 0 0 0 2.13761,2.54306 0.48026411,0.47485166 0 0 0 -0.47393,0.29531 0.48026411,0.47485166 0 0 0 0.26659,0.6199 0.48026411,0.47485166 0 0 0 0.6245,-0.26359 0.48026411,0.47485166 0 0 0 -0.16045,-0.55888 3.5539542,3.5139021 0 0 0 1.66369,0.11715 0.27855304,0.27541382 0 0 0 -0.15057,0.15131 0.27855304,0.27541382 0 0 0 0.15551,0.35632 0.27855304,0.27541382 0 0 0 0.36285,-0.1513 0.27855304,0.27541382 0 0 0 -0.15551,-0.35877 0.27855304,0.27541382 0 0 0 -0.0815,-0.0196 3.5539542,3.5139021 0 0 0 0.93799,-0.33191 0.17289493,0.17094645 0 0 0 -0.0469,0.0683 0.17289493,0.17094645 0 0 0 0.0963,0.2221 0.17289493,0.17094645 0 0 0 0.22463,-0.0952 0.17289493,0.17094645 0 0 0 -0.0963,-0.2221 0.17289493,0.17094645 0 0 0 -0.11848,-0.005 3.5539542,3.5139021 0 0 0 0.59981,-0.40757 0.11526317,0.11396419 0 0 0 -0.0148,0.0269 0.11526317,0.11396419 0 0 0 0.0642,0.14888 0.11526317,0.11396419 0 0 0 0.15057,-0.0635 0.11526317,0.11396419 0 0 0 -0.0642,-0.14887 0.11526317,0.11396419 0 0 0 -0.11107,0.0122 3.5539542,3.5139021 0 0 0 0.96513,-1.33743 3.5539542,3.5139021 0 0 0 0.21722,-0.82735 167.00329,165.12121 0 0 0 16.78496,63.12506 41.976857,41.503789 0 0 0 -22.88432,-10.52125 0.79415417,0.78520427 0 0 0 0.66646,-0.7883 0.79415417,0.78520427 0 0 0 -0.80963,-0.76878 0.79415417,0.78520427 0 0 0 -0.77753,0.79806 0.79415417,0.78520427 0 0 0 0.46899,0.70044 41.976857,41.503789 0 0 0 -4.5591,-0.29286 1.3614094,1.3460667 0 0 0 1.04166,-1.33255 1.3614094,1.3460667 0 0 0 -1.3897,-1.32034 1.3614094,1.3460667 0 0 0 -1.33292,1.3716 1.3614094,1.3460667 0 0 0 0.95773,1.25933 41.976857,41.503789 0 0 0 -0.48133,-0.0146 41.976857,41.503789 0 0 0 -7.01513,0.72485 2.0421154,2.0191013 0 0 0 1.09349,-1.82554 2.0421154,2.0191013 0 0 0 -2.08084,-1.97929 2.0421154,2.0191013 0 0 0 -2.00185,2.05738 2.0421154,2.0191013 0 0 0 2.00185,1.97686 41.976857,41.503789 0 0 0 -11.73219,4.39301 3.290077,3.2529987 0 0 0 1.10336,-2.48938 3.290077,3.2529987 0 0 0 -3.35452,-3.18981 3.290077,3.2529987 0 0 0 -3.22617,3.31673 3.290077,3.2529987 0 0 0 3.35452,3.18981 3.290077,3.2529987 0 0 0 1.06881,-0.20256 41.976857,41.503789 0 0 0 -14.51159,14.47251 5.6725476,5.6086195 0 0 0 0.20241,-1.58393 5.6725476,5.6086195 0 0 0 -5.78341,-5.49614 5.6725476,5.6086195 0 0 0 -5.56125,5.71579 5.6725476,5.6086195 0 0 0 5.78094,5.49857 5.6725476,5.6086195 0 0 0 4.02592,-1.77672 41.976857,41.503789 0 0 0 -4.51713,19.49762 41.976857,41.503789 0 0 0 4.95403,18.77035 10.437489,10.319861 0 0 0 -7.58285,-3.02631 10.437489,10.319861 0 0 0 -10.23389,10.51882 10.437489,10.319861 0 0 0 10.6387,10.11856 10.437489,10.319861 0 0 0 10.23143,-10.51881 10.437489,10.319861 0 0 0 -0.55292,-3.08732 41.976857,41.503789 0 0 0 35.125,17.91127 5.6725483,5.6086202 0 0 0 -3.77662,5.38875 5.6725483,5.6086202 0 0 0 5.78094,5.49858 5.6725483,5.6086202 0 0 0 5.56125,-5.71579 5.6725483,5.6086202 0 0 0 -4.33447,-5.33506 41.976857,41.503789 0 0 0 18.61897,-6.31128 3.2900766,3.2529983 0 0 0 -0.91824,2.31364 3.2900766,3.2529983 0 0 0 3.35453,3.18983 3.2900766,3.2529983 0 0 0 3.22617,-3.3143 3.2900766,3.2529983 0 0 0 -3.35453,-3.1898 3.2900766,3.2529983 0 0 0 -1.03178,0.19036 41.976857,41.503789 0 0 0 8.72077,-7.90497 2.0421158,2.0191017 0 0 0 -0.21721,0.9445 2.0421158,2.0191017 0 0 0 2.08084,1.97929 2.0421158,2.0191017 0 0 0 2.00186,-2.05739 2.0421158,2.0191017 0 0 0 -2.08085,-1.9793 2.0421158,2.0191017 0 0 0 -1.29837,0.49544 41.976857,41.503789 0 0 0 4.71213,-7.42662 41.976857,41.503789 0 0 0 4.31226,-19.06077 41.976857,41.503789 0 0 0 -1.16507,-8.77869 167.00329,165.12121 0 0 0 42.33513,42.13626 3.5539542,3.5139021 0 0 0 -1.99692,-0.14644 0.06723675,0.06647901 0 0 0 0.0247,-0.0781 0.06723675,0.06647901 0 0 0 -0.0864,-0.0391 0.06723675,0.06647901 0 0 0 -0.0395,0.0854 0.06723675,0.06647901 0 0 0 0.0568,0.0415 3.5539542,3.5139021 0 0 0 -0.37026,0.10739 0.1152632,0.11396422 0 0 0 0.0444,-0.13668 0.1152632,0.11396422 0 0 0 -0.1481,-0.0658 0.1152632,0.11396422 0 0 0 -0.0666,0.14887 0.1152632,0.11396422 0 0 0 0.11107,0.0708 3.5539542,3.5139021 0 0 0 -0.037,0.0146 3.5539542,3.5139021 0 0 0 -0.5381,0.25626 0.1728949,0.17094642 0 0 0 0.0345,-0.17816 0.1728949,0.17094642 0 0 0 -0.22461,-0.0976 0.1728949,0.17094642 0 0 0 -0.0987,0.21964 0.1728949,0.17094642 0 0 0 0.21723,0.10251 3.5539542,3.5139021 0 0 0 -0.80716,0.68092 0.27855305,0.27541383 0 0 0 0.0148,-0.22942 0.27855305,0.27541383 0 0 0 -0.36038,-0.15863 0.27855305,0.27541383 0 0 0 -0.16044,0.35633 0.27855305,0.27541383 0 0 0 0.36038,0.15863 0.27855305,0.27541383 0 0 0 0.079,-0.0464 3.5539542,3.5139021 0 0 0 -0.73558,1.56438 0.48026403,0.47485159 0 0 0 -0.0296,-0.13177 0.48026403,0.47485159 0 0 0 -0.61956,-0.27336 0.48026403,0.47485159 0 0 0 -0.27892,0.61259 0.48026403,0.47485159 0 0 0 0.62202,0.27334 0.48026403,0.47485159 0 0 0 0.26905,-0.25382 3.5539542,3.5139021 0 0 0 0.20488,1.68155 3.5539542,3.5139021 0 0 0 0.94045,1.35451 0.88368594,0.87372704 0 0 0 -0.6936,-0.0269 0.88368594,0.87372704 0 0 0 -0.5085,1.12754 0.88368594,0.87372704 0 0 0 1.1404,0.50519 0.88368594,0.87372704 0 0 0 0.50848,-1.12998 0.88368594,0.87372704 0 0 0 -0.13329,-0.22941 3.5539542,3.5139021 0 0 0 3.3175,0.43198 0.48026411,0.47485166 0 0 0 -0.14317,0.53449 0.48026411,0.47485166 0 0 0 0.61956,0.27577 0.48026411,0.47485166 0 0 0 0.27646,-0.61502 0.48026411,0.47485166 0 0 0 -0.49367,-0.30263 3.5539542,3.5139021 0 0 0 1.29343,-1.02992 0.27855304,0.27541382 0 0 0 -0.005,0.20989 0.27855304,0.27541382 0 0 0 0.36039,0.16108 0.27855304,0.27541382 0 0 0 0.16044,-0.35632 0.27855304,0.27541382 0 0 0 -0.36039,-0.15864 0.27855304,0.27541382 0 0 0 -0.0716,0.0391 3.5539542,3.5139021 0 0 0 0.45911,-0.87128 0.17289493,0.17094645 0 0 0 0.01,0.0806 0.17289493,0.17094645 0 0 0 0.22461,0.0976 0.17289493,0.17094645 0 0 0 0.0987,-0.21965 0.17289493,0.17094645 0 0 0 -0.22216,-0.0976 0.17289493,0.17094645 0 0 0 -0.0889,0.0756 3.5539542,3.5139021 0 0 0 0.15798,-0.71508 0.11526317,0.11396419 0 0 0 0.01,0.0415 0.11526317,0.11396419 0 0 0 0.1481,0.0659 0.11526317,0.11396419 0 0 0 0.0667,-0.14642 0.11526317,0.11396419 0 0 0 -0.15057,-0.0659 0.11526317,0.11396419 0 0 0 -0.0716,0.0829 3.5539542,3.5139021 0 0 0 0.0173,-0.51496 0.06723675,0.06647901 0 0 0 0.005,0.0171 0.06723675,0.06647901 0 0 0 0.0864,0.039 0.06723675,0.06647901 0 0 0 0.0395,-0.0854 0.06723675,0.06647901 0 0 0 -0.0864,-0.0391 0.06723675,0.06647901 0 0 0 -0.0444,0.0537 3.5539542,3.5139021 0 0 0 -0.22709,-1.10069 3.5539542,3.5139021 0 0 0 -0.65413,-1.05677 167.00329,165.12121 0 0 0 24.75782,13.56219 7.81726,7.7291616 0 0 0 -4.6282,0.6199 0.14789363,0.14622691 0 0 0 0.0247,-0.19037 0.14789363,0.14622691 0 0 0 -0.20488,-0.0415 0.14789363,0.14622691 0 0 0 -0.042,0.20257 0.14789363,0.14622691 0 0 0 0.1407,0.0659 7.81726,7.7291616 0 0 0 -0.74052,0.4027 0.25353237,0.25067513 0 0 0 0.0272,-0.30995 0.25353237,0.25067513 0 0 0 -0.3505,-0.0708 0.25353237,0.25067513 0 0 0 -0.0716,0.34656 0.25353237,0.25067513 0 0 0 0.27894,0.10251 7.81726,7.7291616 0 0 0 -0.0765,0.0464 7.81726,7.7291616 0 0 0 -1.02931,0.80782 0.38029878,0.37601292 0 0 0 -0.0123,-0.39536 0.38029878,0.37601292 0 0 0 -0.52824,-0.10495 0.38029878,0.37601292 0 0 0 -0.10613,0.52228 0.38029878,0.37601292 0 0 0 0.51588,0.11226 7.81726,7.7291616 0 0 0 -1.3971,1.8524 0.61270395,0.60579894 0 0 0 -0.079,-0.50033 0.61270395,0.60579894 0 0 0 -0.85158,-0.16839 0.61270395,0.60579894 0 0 0 -0.17032,0.83954 0.61270395,0.60579894 0 0 0 0.85159,0.16841 0.61270395,0.60579894 0 0 0 0.14563,-0.13668 7.81726,7.7291616 0 0 0 -0.8121,3.70721 1.0563864,1.0444812 0 0 0 -0.12835,-0.26846 1.0563864,1.0444812 0 0 0 -1.46374,-0.29042 1.0563864,1.0444812 0 0 0 -0.29621,1.44969 1.0563864,1.0444812 0 0 0 1.46622,0.29042 1.0563864,1.0444812 0 0 0 0.45171,-0.67847 7.81726,7.7291616 0 0 0 1.26627,3.50952 7.81726,7.7291616 0 0 0 2.6782,2.4552 1.9437512,1.9218457 0 0 0 -1.49584,0.27579 1.9437512,1.9218457 0 0 0 -0.54305,2.66509 1.9437512,1.9218457 0 0 0 2.69548,0.53692 1.9437512,1.9218457 0 0 0 0.54057,-2.66509 1.9437512,1.9218457 0 0 0 -0.39989,-0.42954 7.81726,7.7291616 0 0 0 7.33109,-0.66627 1.0563866,1.0444814 0 0 0 -0.0494,1.22027 1.0563866,1.0444814 0 0 0 1.46622,0.29043 1.0563866,1.0444814 0 0 0 0.29373,-1.44969 1.0563866,1.0444814 0 0 0 -1.22185,-0.40757 7.81726,7.7291616 0 0 0 2.28573,-2.83348 0.61270391,0.6057989 0 0 0 0.0889,0.45393 0.61270391,0.6057989 0 0 0 0.85159,0.16841 0.61270391,0.6057989 0 0 0 0.17031,-0.83956 0.61270391,0.6057989 0 0 0 -0.84912,-0.16841 0.61270391,0.6057989 0 0 0 -0.14316,0.1318 7.81726,7.7291616 0 0 0 0.56773,-2.10619 0.38029884,0.37601298 0 0 0 0.0617,0.17084 0.38029884,0.37601298 0 0 0 0.52822,0.10493 0.38029884,0.37601298 0 0 0 0.10368,-0.52227 0.38029884,0.37601298 0 0 0 -0.52577,-0.10495 0.38029884,0.37601298 0 0 0 -0.15303,0.20745 7.81726,7.7291616 0 0 0 -0.01,-1.60833 0.25353231,0.25067507 0 0 0 0.037,0.0854 0.25353231,0.25067507 0 0 0 0.3505,0.0708 0.25353231,0.25067507 0 0 0 0.0716,-0.34899 0.25353231,0.25067507 0 0 0 -0.35052,-0.0683 0.25353231,0.25067507 0 0 0 -0.11354,0.21233 7.81726,7.7291616 0 0 0 -1.25148,-3.39482 7.81726,7.7291616 0 0 0 -1.32058,-1.48387 167.00329,165.12121 0 0 0 64.4666,12.98623 22.568521,22.31418 0 0 0 -10.2018,7.02148 0.42697064,0.4221588 0 0 0 -0.17772,-0.52472 0.42697064,0.4221588 0 0 0 -0.585,0.14888 0.42697064,0.4221588 0 0 0 0.15057,0.57597 0.42697064,0.4221588 0 0 0 0.45663,-0.0146 22.568521,22.31418 0 0 0 -1.42178,1.98173 0.73195091,0.72370202 0 0 0 -0.32336,-0.84688 0.73195091,0.72370202 0 0 0 -1.00215,0.25382 0.73195091,0.72370202 0 0 0 0.25917,0.99088 0.73195091,0.72370202 0 0 0 0.85159,-0.0781 22.568521,22.31418 0 0 0 -0.1407,0.21232 22.568521,22.31418 0 0 0 -1.6464,3.38018 1.097927,1.0855537 0 0 0 -0.53564,-1.0104 1.097927,1.0855537 0 0 0 -1.50324,0.38317 1.097927,1.0855537 0 0 0 0.38754,1.48631 1.097927,1.0855537 0 0 0 1.48102,-0.34901 22.568521,22.31418 0 0 0 -1.27861,6.54801 1.7688836,1.7489488 0 0 0 -0.84172,-1.1983 1.7688836,1.7489488 0 0 0 -2.42148,0.61502 1.7688836,1.7489488 0 0 0 0.62449,2.39663 1.7688836,1.7489488 0 0 0 2.42149,-0.61746 1.7688836,1.7489488 0 0 0 0.20734,-0.54182 22.568521,22.31418 0 0 0 2.60414,10.65061 3.0497999,3.0154295 0 0 0 -0.67634,-0.53692 3.0497999,3.0154295 0 0 0 -4.17649,1.06407 3.0497999,3.0154295 0 0 0 1.07621,4.12943 3.0497999,3.0154295 0 0 0 4.1765,-1.06408 3.0497999,3.0154295 0 0 0 0.31595,-2.32097 22.568521,22.31418 0 0 0 7.74824,7.54621 22.568521,22.31418 0 0 0 10.08577,3.05314 5.6116327,5.5483911 0 0 0 -3.53965,2.57722 5.6116327,5.5483911 0 0 0 1.97965,7.5999 5.6116327,5.5483911 0 0 0 7.68406,-1.95976 5.6116327,5.5483911 0 0 0 -1.97965,-7.59747 5.6116327,5.5483911 0 0 0 -1.58469,-0.61989 22.568521,22.31418 0 0 0 18.20181,-10.83853 3.0498003,3.0154299 0 0 0 1.42919,3.22887 3.0498003,3.0154299 0 0 0 4.17649,-1.0641 3.0498003,3.0154299 0 0 0 -1.07622,-4.12941 3.0498003,3.0154299 0 0 0 -3.69268,0.45638 22.568521,22.31418 0 0 0 2.33261,-10.20642 1.7688835,1.7489487 0 0 0 0.8121,1.06897 1.7688835,1.7489487 0 0 0 2.42395,-0.61746 1.7688835,1.7489487 0 0 0 -0.6245,-2.3942 1.7688835,1.7489487 0 0 0 -2.42395,0.61746 1.7688835,1.7489487 0 0 0 -0.20241,0.51985 22.568521,22.31418 0 0 0 -1.19716,-6.17706 1.0979272,1.0855539 0 0 0 0.37519,0.36609 1.0979272,1.0855539 0 0 0 1.50325,-0.38317 1.0979272,1.0855539 0 0 0 -0.38755,-1.48629 1.0979272,1.0855539 0 0 0 -1.50324,0.38316 1.0979272,1.0855539 0 0 0 -0.13575,0.72729 22.568521,22.31418 0 0 0 -2.06604,-4.17092 0.73195078,0.72370189 0 0 0 0.20241,0.17572 0.73195078,0.72370189 0 0 0 1.00216,-0.25382 0.73195078,0.72370189 0 0 0 -0.25671,-0.99086 0.73195078,0.72370189 0 0 0 -1.00217,0.2538 0.73195078,0.72370189 0 0 0 0.0124,0.75658 22.568521,22.31418 0 0 0 -7.60507,-7.32899 22.568521,22.31418 0 0 0 -5.70688,-2.32829 167.00329,165.12121 0 0 0 73.92541,-23.5514 11.536318,11.406307 0 0 0 -3.63591,7.82688 0.21825396,0.2157943 0 0 0 -0.2345,-0.16108 0.21825396,0.2157943 0 0 0 -0.19501,0.23917 0.21825396,0.2157943 0 0 0 0.23943,0.19037 0.21825396,0.2157943 0 0 0 0.18267,-0.13668 11.536318,11.406307 0 0 0 0.0296,1.23493 0.37415029,0.36993372 0 0 0 -0.39494,-0.25138 0.37415029,0.36993372 0 0 0 -0.33323,0.40757 0.37415029,0.36993372 0 0 0 0.41222,0.32947 0.37415029,0.36993372 0 0 0 0.32583,-0.29042 11.536318,11.406307 0 0 0 0.007,0.13179 11.536318,11.406307 0 0 0 0.37026,1.88167 0.56122576,0.5549009 0 0 0 -0.53317,-0.25381 0.56122576,0.5549009 0 0 0 -0.49614,0.61014 l -0.002,0 a 0.56122576,0.5549009 0 0 0 0.61956,0.49299 0.56122576,0.5549009 0 0 0 0.49861,-0.58818 11.536318,11.406307 0 0 0 1.49831,3.07023 0.90419764,0.89400758 0 0 0 -0.71584,-0.23918 0.90419764,0.89400758 0 0 0 -0.80221,0.98355 0.90419764,0.89400758 0 0 0 0.99476,0.79562 0.90419764,0.89400758 0 0 0 0.80221,-0.98598 0.90419764,0.89400758 0 0 0 -0.0815,-0.28312 11.536318,11.406307 0 0 0 4.35669,3.58031 1.5589617,1.5413926 0 0 0 -0.44432,-0.0171 1.5589617,1.5413926 0 0 0 -1.38229,1.69619 1.5589617,1.5413926 0 0 0 1.71552,1.36914 1.5589617,1.5413926 0 0 0 1.38477,-1.69618 1.5589617,1.5413926 0 0 0 -0.58995,-1.047 11.536318,11.406307 0 0 0 5.50695,0.75412 11.536318,11.406307 0 0 0 5.07992,-1.79136 2.8684902,2.8361631 0 0 0 -0.65659,2.12572 2.8684902,2.8361631 0 0 0 3.15706,2.51866 2.8684902,2.8361631 0 0 0 2.54736,-3.12147 2.8684902,2.8361631 0 0 0 -3.15705,-2.51866 2.8684902,2.8361631 0 0 0 -0.84172,0.22453 11.536318,11.406307 0 0 0 4.11726,-9.93794 1.5589619,1.5413928 0 0 0 1.58223,0.89323 1.5589619,1.5413928 0 0 0 1.38229,-1.69618 1.5589619,1.5413928 0 0 0 -1.71552,-1.36916 1.5589619,1.5413928 0 0 0 -1.37242,1.30082 11.536318,11.406307 0 0 0 -2.19439,-4.88844 0.90419758,0.89400752 0 0 0 0.66399,0.19281 0.90419758,0.89400752 0 0 0 0.80223,-0.98355 0.90419758,0.89400752 0 0 0 -0.99476,-0.79319 0.90419758,0.89400752 0 0 0 -0.80469,0.98355 0.90419758,0.89400752 0 0 0 0.079,0.27334 11.536318,11.406307 0 0 0 -2.39927,-2.16965 0.56122587,0.55490101 0 0 0 0.26659,0.0366 0.56122587,0.55490101 0 0 0 0.49861,-0.61258 0.56122587,0.55490101 0 0 0 -0.61709,-0.49056 0.56122587,0.55490101 0 0 0 -0.49861,0.61015 0.56122587,0.55490101 0 0 0 0.16784,0.33923 11.536318,11.406307 0 0 0 -2.13267,-1.08605 0.37415023,0.36993366 0 0 0 0.13575,0.01 0.37415023,0.36993366 0 0 0 0.33323,-0.40759 0.37415023,0.36993366 0 0 0 -0.41221,-0.32702 0.37415023,0.36993366 0 0 0 -0.33077,0.40757 0.37415023,0.36993366 0 0 0 0.23697,0.30507 11.536318,11.406307 0 0 0 -5.38106,-0.7102 11.536318,11.406307 0 0 0 -2.2956,0.48566 167.00329,165.12121 0 0 0 35.39406,-30.55091 7.8172608,7.7291624 0 0 0 -0.2493,5.02999 0.14789364,0.14622692 0 0 0 -0.18514,-0.0537 0.14789364,0.14622692 0 0 0 -0.074,0.19524 0.14789364,0.14622692 0 0 0 0.19747,0.0708 0.14789364,0.14622692 0 0 0 0.0864,-0.13178 7.8172608,7.7291624 0 0 0 0.28881,0.79074 0.25353239,0.25067515 0 0 0 -0.30609,-0.0756 0.25353239,0.25067515 0 0 0 -0.12342,0.33436 0.25353239,0.25067515 0 0 0 0.33571,0.12203 0.25353239,0.25067515 0 0 0 0.14562,-0.25626 7.8172608,7.7291624 0 0 0 0.0321,0.0806 7.8172608,7.7291624 0 0 0 0.65166,1.12998 0.38029883,0.37601297 0 0 0 -0.39742,-0.0488 0.38029883,0.37601297 0 0 0 -0.18512,0.5003 0.38029883,0.37601297 0 0 0 0.50602,0.18305 0.38029883,0.37601297 0 0 0 0.19006,-0.48568 7.8172608,7.7291624 0 0 0 1.63653,1.64738 0.61270402,0.60579901 0 0 0 -0.51094,0.002 0.61270402,0.60579901 0 0 0 -0.29868,0.80295 0.61270402,0.60579901 0 0 0 0.81209,0.29531 0.61270402,0.60579901 0 0 0 0.29867,-0.80294 0.61270402,0.60579901 0 0 0 -0.11354,-0.16596 7.8172608,7.7291624 0 0 0 3.58161,1.36183 1.0563866,1.0444814 0 0 0 -0.28879,0.0854 1.0563866,1.0444814 0 0 0 -0.51342,1.38625 1.0563866,1.0444814 0 0 0 1.40203,0.51008 1.0563866,1.0444814 0 0 0 0.51342,-1.38868 1.0563866,1.0444814 0 0 0 -0.60722,-0.54425 7.8172608,7.7291624 0 0 0 3.70257,-0.698 7.8172608,7.7291624 0 0 0 2.86332,-2.24287 1.9437514,1.9218459 0 0 0 0.0469,1.50583 1.9437514,1.9218459 0 0 0 2.57945,0.93717 1.9437514,1.9218459 0 0 0 0.94785,-2.55283 1.9437514,1.9218459 0 0 0 -2.57944,-0.93717 1.9437514,1.9218459 0 0 0 -0.49122,0.32458 7.8172608,7.7291624 0 0 0 0.45665,-7.26065 1.0563867,1.0444815 0 0 0 1.21445,0.23185 1.0563867,1.0444815 0 0 0 0.51342,-1.38623 1.0563867,1.0444815 0 0 0 -1.40203,-0.51009 1.0563867,1.0444815 0 0 0 -0.59489,1.12998 7.8172608,7.7291624 0 0 0 -2.48318,-2.66509 0.61270398,0.60579897 0 0 0 0.46898,-0.0195 0.61270398,0.60579897 0 0 0 0.29868,-0.80292 0.61270398,0.60579897 0 0 0 -0.81456,-0.29532 0.61270398,0.60579897 0 0 0 -0.29868,0.80295 0.61270398,0.60579897 0 0 0 0.11108,0.16106 7.8172608,7.7291624 0 0 0 -2.01666,-0.87859 0.38029889,0.37601303 0 0 0 0.17771,-0.0342 0.38029889,0.37601303 0 0 0 0.1876,-0.49787 0.38029889,0.37601303 0 0 0 -0.50601,-0.18305 0.38029889,0.37601303 0 0 0 -0.18513,0.49788 0.38029889,0.37601303 0 0 0 0.18266,0.1806 7.8172608,7.7291624 0 0 0 -1.60692,-0.23673 0.25353234,0.2506751 0 0 0 0.0889,-0.0244 0.25353234,0.2506751 0 0 0 0.12342,-0.33191 0.25353234,0.2506751 0 0 0 -0.33569,-0.12204 0.25353234,0.2506751 0 0 0 -0.12342,0.33192 0.25353234,0.2506751 0 0 0 0.21722,0.14644 7.8172608,7.7291624 0 0 0 -3.6063,0.70043 7.8172608,7.7291624 0 0 0 -0.84913,0.46371 167.00329,165.12121 0 0 0 17.2515,-25.18901 5.3681287,5.3076314 0 0 0 0.29125,2.7798 0.10155887,0.10041433 0 0 0 -0.13081,-0.0269 0.10155887,0.10041433 0 0 0 -0.037,0.13666 0.10155887,0.10041433 0 0 0 0.13823,0.039 0.10155887,0.10041433 0 0 0 0.0518,-0.0903 5.3681287,5.3076314 0 0 0 0.24437,0.51739 0.17410121,0.17213914 0 0 0 -0.21475,-0.0342 0.17410121,0.17213914 0 0 0 -0.0642,0.23673 0.17410121,0.17213914 0 0 0 0.23696,0.0635 0.17410121,0.17213914 0 0 0 0.0864,-0.17571 5.3681287,5.3076314 0 0 0 0.0247,0.0464 5.3681287,5.3076314 0 0 0 0.51342,0.7346 0.26115194,0.25820883 0 0 0 -0.27399,-0.01 0.26115194,0.25820883 0 0 0 -0.0987,0.35144 0.26115194,0.25820883 0 0 0 0.35791,0.0976 0.26115194,0.25820883 0 0 0 0.1012,-0.34412 5.3681287,5.3076314 0 0 0 1.21691,1.03235 0.42074507,0.41600339 0 0 0 -0.35051,0.0317 0.42074507,0.41600339 0 0 0 -0.1555,0.56622 0.42074507,0.41600339 0 0 0 0.57513,0.15619 0.42074507,0.41600339 0 0 0 0.1555,-0.56865 0.42074507,0.41600339 0 0 0 -0.0889,-0.10739 5.3681287,5.3076314 0 0 0 2.53256,0.72485 0.72542275,0.71724743 0 0 0 -0.19254,0.0732 0.72542275,0.71724743 0 0 0 -0.26905,0.97867 0.72542275,0.71724743 0 0 0 0.98983,0.26846 0.72542275,0.71724743 0 0 0 0.26905,-0.97866 0.72542275,0.71724743 0 0 0 -0.44678,-0.33925 5.3681287,5.3076314 0 0 0 2.49058,-0.69312 5.3681287,5.3076314 0 0 0 1.82661,-1.69861 1.3347779,1.3197353 0 0 0 0.12095,1.02502 1.3347779,1.3197353 0 0 0 1.82167,0.49299 1.3347779,1.3197353 0 0 0 0.49613,-1.80112 1.3347779,1.3197353 0 0 0 -1.82165,-0.49056 1.3347779,1.3197353 0 0 0 -0.31596,0.24895 5.3681287,5.3076314 0 0 0 -0.11848,-4.99583 0.72542287,0.71724755 0 0 0 0.84171,0.0903 0.72542287,0.71724755 0 0 0 0.26905,-0.97867 0.72542287,0.71724755 0 0 0 -0.98735,-0.26845 0.72542287,0.71724755 0 0 0 -0.34063,0.80781 5.3681287,5.3076314 0 0 0 -1.85869,-1.6791 0.42074504,0.41600336 0 0 0 0.3209,-0.0391 0.42074504,0.41600336 0 0 0 0.1555,-0.56864 0.42074504,0.41600336 0 0 0 -0.57514,-0.15376 0.42074504,0.41600336 0 0 0 -0.1555,0.56865 0.42074504,0.41600336 0 0 0 0.0839,0.10251 5.3681287,5.3076314 0 0 0 -1.43166,-0.48324 0.261152,0.25820889 0 0 0 0.12095,-0.0342 0.261152,0.25820889 0 0 0 0.0963,-0.35389 0.261152,0.25820889 0 0 0 -0.35545,-0.0952 0.261152,0.25820889 0 0 0 -0.0963,0.35144 0.261152,0.25820889 0 0 0 0.13577,0.11471 5.3681287,5.3076314 0 0 0 -1.11078,-0.0708 0.17410117,0.1721391 0 0 0 0.0568,-0.0195 0.17410117,0.1721391 0 0 0 0.0642,-0.2343 0.17410117,0.1721391 0 0 0 -0.23697,-0.0635 0.17410117,0.1721391 0 0 0 -0.0666,0.23429 0.17410117,0.1721391 0 0 0 0.16044,0.0854 5.3681287,5.3076314 0 0 0 -2.42641,0.69068 5.3681287,5.3076314 0 0 0 -1.30084,1.0348 167.00329,165.12121 0 0 0 10.35979,-24.16153 3.5539546,3.5139025 0 0 0 0.59734,2.79932 0.06723676,0.06647902 0 0 0 -0.0889,0.007 0.06723676,0.06647902 0 0 0 0,0.0927 0.06723676,0.06647902 0 0 0 0.0963,0 0.06723676,0.06647902 0 0 0 0.0173,-0.061 3.5539546,3.5139025 0 0 0 0.24437,0.28798 0.11526321,0.11396423 0 0 0 -0.14318,0.0122 0.11526321,0.11396423 0 0 0 -0.002,0.16352 0.11526321,0.11396423 0 0 0 0.16292,0 0.11526321,0.11396423 0 0 0 0.0271,-0.12691 3.5539546,3.5139025 0 0 0 0.0222,0.0244 3.5539546,3.5139025 0 0 0 0.45418,0.38561 0.17289493,0.17094645 0 0 0 -0.17772,0.0391 0.17289493,0.17094645 0 0 0 -0.002,0.24162 0.17289493,0.17094645 0 0 0 0.24437,0.002 0.17289493,0.17094645 0 0 0 0.007,-0.23674 3.5539546,3.5139025 0 0 0 0.95525,0.45883 0.27855309,0.27541387 0 0 0 -0.21967,0.0781 0.27855309,0.27541387 0 0 0 -0.002,0.39049 0.27855309,0.27541387 0 0 0 0.39247,0.002 0.27855309,0.27541387 0 0 0 0.005,-0.39049 0.27855309,0.27541387 0 0 0 -0.0667,-0.0488 3.5539546,3.5139025 0 0 0 1.73528,0.039 0.4802641,0.47485165 0 0 0 -0.10862,0.0781 0.4802641,0.47485165 0 0 0 -0.007,0.67115 0.4802641,0.47485165 0 0 0 0.6788,0.007 0.4802641,0.47485165 0 0 0 0.007,-0.67116 0.4802641,0.47485165 0 0 0 -0.34558,-0.14155 3.5539546,3.5139025 0 0 0 1.47609,-0.85908 3.5539546,3.5139025 0 0 0 0.88122,-1.39356 0.88368604,0.87372714 0 0 0 0.25177,0.63698 0.88368604,0.87372714 0 0 0 1.249,0.0122 0.88368604,0.87372714 0 0 0 0.0123,-1.23736 0.88368604,0.87372714 0 0 0 -1.249,-0.01 0.88368604,0.87372714 0 0 0 -0.16044,0.21232 3.5539546,3.5139025 0 0 0 -0.92812,-3.17761 0.48026417,0.47485172 0 0 0 0.5554,-0.083 0.48026417,0.47485172 0 0 0 0.005,-0.67359 0.48026417,0.47485172 0 0 0 -0.67881,-0.005 0.48026417,0.47485172 0 0 0 -0.079,0.57352 3.5539546,3.5139025 0 0 0 -1.47608,-0.76633 0.27855308,0.27541386 0 0 0 0.19747,-0.0781 0.27855308,0.27541386 0 0 0 0.002,-0.38805 0.27855308,0.27541386 0 0 0 -0.39248,-0.005 0.27855308,0.27541386 0 0 0 -0.005,0.39049 0.27855308,0.27541386 0 0 0 0.0716,0.0512 3.5539546,3.5139025 0 0 0 -0.99724,-0.0708 0.17289495,0.17094647 0 0 0 0.0716,-0.0415 0.17289495,0.17094647 0 0 0 0.002,-0.24161 0.17289495,0.17094647 0 0 0 -0.24437,-0.002 0.17289495,0.17094647 0 0 0 -0.002,0.24161 0.17289495,0.17094647 0 0 0 0.10614,0.0488 3.5539546,3.5139025 0 0 0 -0.71583,0.13666 0.11526319,0.11396421 0 0 0 0.0247,-0.0195 0.11526319,0.11396421 0 0 0 0,-0.16108 0.11526319,0.11396421 0 0 0 -0.1629,0 0.11526319,0.11396421 0 0 0 0,0.16108 0.11526319,0.11396421 0 0 0 0.10613,0.0317 3.5539546,3.5139025 0 0 0 -1.42671,0.84443 3.5539546,3.5139025 0 0 0 -0.63191,0.83222 167.00329,165.12121 0 0 0 8.37274,-51.27124 167.00329,165.12121 0 0 0 -137.22694,-162.33865 3.553955,3.5139029 0 0 0 1.68096,-0.89813 0.06723677,0.06647903 0 0 0 0.0173,0.0854 0.06723677,0.06647903 0 0 0 0.0938,-0.0122 0.06723677,0.06647903 0 0 0 -0.0123,-0.0927 0.06723677,0.06647903 0 0 0 -0.0691,-0.007 3.553955,3.5139029 0 0 0 0.25918,-0.28067 0.11526322,0.11396423 0 0 0 0.0321,0.13668 0.11526322,0.11396423 0 0 0 0.16292,-0.0195 0.11526322,0.11396423 0 0 0 -0.0222,-0.16109 0.11526322,0.11396423 0 0 0 -0.12836,-0.007 3.553955,3.5139029 0 0 0 0.0198,-0.0269 3.553955,3.5139029 0 0 0 0.32336,-0.49788 0.17289495,0.17094647 0 0 0 0.0642,0.1684 0.17289495,0.17094647 0 0 0 0.2419,-0.0293 0.17289495,0.17094647 0 0 0 0,-0.002 0.17289495,0.17094647 0 0 0 -0.0321,-0.23917 0.17289495,0.17094647 0 0 0 -0.23944,0.0269 3.553955,3.5139029 0 0 0 0.32584,-0.99819 0.27855313,0.27541391 0 0 0 0.1086,0.20257 0.27855313,0.27541391 0 0 0 0.39001,-0.0512 0.27855313,0.27541391 0 0 0 -0.0518,-0.3856 0.27855313,0.27541391 0 0 0 -0.39,0.0512 0.27855313,0.27541391 0 0 0 -0.042,0.0806 3.553955,3.5139029 0 0 0 -0.2024,-1.71328 0.48026416,0.47485171 0 0 0 0.0938,0.0952 0.48026416,0.47485171 0 0 0 0.67386,-0.0879 0.48026416,0.47485171 0 0 0 -0.0889,-0.66628 0.48026416,0.47485171 0 0 0 -0.67387,0.0879 0.48026416,0.47485171 0 0 0 -0.0938,0.35876 3.553955,3.5139029 0 0 0 -1.06634,-1.32522 3.553955,3.5139029 0 0 0 -1.51806,-0.66628 0.88368614,0.87372724 0 0 0 0.60229,-0.33679 0.88368614,0.87372724 0 0 0 -0.16292,-1.22516 0.88368614,0.87372724 0 0 0 -1.23912,0.16108 0.88368614,0.87372724 0 0 0 0.16538,1.22516 0.88368614,0.87372724 0 0 0 0.22956,0.12691 3.553955,3.5139029 0 0 0 -3.04845,1.35451 0.48026424,0.47485179 0 0 0 -0.16044,-0.53205 0.48026424,0.47485179 0 0 0 -0.67386,0.0879 0.48026424,0.47485179 0 0 0 0.0889,0.66628 0.48026424,0.47485179 0 0 0 0.58254,0 3.553955,3.5139029 0 0 0 -0.55786,1.54731 0.27855311,0.27541389 0 0 0 -0.10614,-0.1806 0.27855311,0.27541389 0 0 0 -0.39001,0.0512 0.27855311,0.27541389 0 0 0 0.0518,0.3856 0.27855311,0.27541389 0 0 0 0.39,-0.0512 0.27855311,0.27541389 0 0 0 0.042,-0.0781 3.553955,3.5139029 0 0 0 0.0691,0.98842 0.17289498,0.1709465 0 0 0 -0.0518,-0.0635 0.17289498,0.1709465 0 0 0 -0.24191,0.0317 0.17289498,0.1709465 0 0 0 0.0321,0.23917 0.17289498,0.1709465 0 0 0 0.24191,-0.0317 0.17289498,0.1709465 0 0 0 0.0345,-0.11226 3.553955,3.5139029 0 0 0 0.24191,0.68823 0.1152632,0.11396422 0 0 0 -0.0272,-0.0269 0.1152632,0.11396422 0 0 0 -0.16044,0.0195 0.1152632,0.11396422 0 0 0 0.0197,0.16108 0.1152632,0.11396422 0 0 0 0.16291,-0.0219 0.1152632,0.11396422 0 0 0 0.0173,-0.10739 3.553955,3.5139029 0 0 0 1.04412,1.27642 3.553955,3.5139029 0 0 0 0.38013,0.24894 167.00329,165.12121 0 0 0 -22.36349,-2.1599 5.3681281,5.3076308 0 0 0 2.79421,-1.93048 0.10155886,0.10041432 0 0 0 0.0494,0.12203 0.10155886,0.10041432 0 0 0 0.13576,-0.0415 0.10155886,0.10041432 0 0 0 -0.042,-0.13667 0.10155886,0.10041432 0 0 0 -0.10613,0.007 5.3681281,5.3076308 0 0 0 0.31347,-0.48323 0.17410118,0.17213911 0 0 0 0.0864,0.19769 0.17410118,0.17213911 0 0 0 0.23696,-0.0708 0.17410118,0.17213911 0 0 0 -0.074,-0.2343 0.17410118,0.17213911 0 0 0 -0.19993,0.0293 5.3681281,5.3076308 0 0 0 0.0296,-0.0512 5.3681281,5.3076308 0 0 0 0.35545,-0.82247 0.26115192,0.25820881 0 0 0 0.13823,0.2343 0.26115192,0.25820881 0 0 0 0.35298,-0.10739 0.26115192,0.25820881 0 0 0 -0.10861,-0.349 0.26115192,0.25820881 0 0 0 -0.34804,0.10007 5.3681281,5.3076308 0 0 0 0.23202,-1.56928 0.42074502,0.41600334 0 0 0 0.21229,0.27578 0.42074502,0.41600334 0 0 0 0.57019,-0.17328 0.42074502,0.41600334 0 0 0 -0.17525,-0.56133 0.42074502,0.41600334 0 0 0 -0.56773,0.17084 0.42074502,0.41600334 0 0 0 -0.0444,0.13179 5.3681281,5.3076308 0 0 0 -0.73558,-2.50401 0.72542267,0.71724735 0 0 0 0.16538,0.12203 0.72542267,0.71724735 0 0 0 0.98242,-0.29775 0.72542267,0.71724735 0 0 0 -0.30114,-0.96891 0.72542267,0.71724735 0 0 0 -0.97994,0.29531 0.72542267,0.71724735 0 0 0 -0.0494,0.55645 5.3681281,5.3076308 0 0 0 -1.92533,-1.71083 5.3681281,5.3076308 0 0 0 -2.42888,-0.61747 1.3347778,1.3197352 0 0 0 0.81209,-0.65162 1.3347778,1.3197352 0 0 0 -0.55291,-1.78405 1.3347778,1.3197352 0 0 0 -1.80439,0.54913 1.3347778,1.3197352 0 0 0 0.55291,1.78404 1.3347778,1.3197352 0 0 0 0.37767,0.12936 5.3681281,5.3076308 0 0 0 -4.20118,2.77003 0.72542278,0.71724746 0 0 0 -0.37272,-0.7517 0.72542278,0.71724746 0 0 0 -0.98241,0.29775 0.72542278,0.71724746 0 0 0 0.30114,0.96891 0.72542278,0.71724746 0 0 0 0.87133,-0.14644 5.3681281,5.3076308 0 0 0 -0.44184,2.44788 0.42074499,0.41600331 0 0 0 -0.20488,-0.24405 0.42074499,0.41600331 0 0 0 -0.56772,0.17328 0.42074499,0.41600331 0 0 0 0.17278,0.56132 0.42074499,0.41600331 0 0 0 0.57021,-0.17327 0.42074499,0.41600331 0 0 0 0.042,-0.11715 5.3681281,5.3076308 0 0 0 0.35298,1.44725 0.26115197,0.25820886 0 0 0 -0.0938,-0.083 0.26115197,0.25820886 0 0 0 -0.35298,0.10739 0.26115197,0.25820886 0 0 0 0.10861,0.34899 0.26115197,0.25820886 0 0 0 0.35297,-0.10738 0.26115197,0.25820886 0 0 0 0.0247,-0.17328 5.3681281,5.3076308 0 0 0 0.52331,0.95426 0.17410114,0.17213907 0 0 0 -0.037,-0.0269 0.17410114,0.17213907 0 0 0 -0.23697,0.0733 0.17410114,0.17213907 0 0 0 0.074,0.23185 0.17410114,0.17213907 0 0 0 0.2345,-0.0708 0.17410114,0.17213907 0 0 0 -0.002,-0.16596 5.3681281,5.3076308 0 0 0 1.87844,1.64494 5.3681281,5.3076308 0 0 0 0.47145,0.2172 167.00329,165.12121 0 0 0 -1.28355,-0.0635 167.00329,165.12121 0 0 0 -27.65322,2.31365 7.8172617,7.7291633 0 0 0 3.05585,-3.38018 0.14789365,0.14622693 0 0 0 0.10614,0.16109 0.14789365,0.14622693 0 0 0 0.18265,-0.10007 0.14789365,0.14622693 0 0 0 -0.10119,-0.18304 0.14789365,0.14622693 0 0 0 -0.14811,0.0415 7.8172617,7.7291633 0 0 0 0.30115,-0.78098 0.25353242,0.25067518 0 0 0 0.18265,0.25625 0.25353242,0.25067518 0 0 0 0.31349,-0.17083 0.25353242,0.25067518 0 0 0 -0.17279,-0.31239 0.25353242,0.25067518 0 0 0 -0.27893,0.10006 7.8172617,7.7291633 0 0 0 0.0296,-0.083 7.8172617,7.7291633 0 0 0 0.25672,-1.27397 0.38029888,0.37601302 0 0 0 0.26657,0.29287 0.38029888,0.37601302 0 0 0 0.47147,-0.25626 0.38029888,0.37601302 0 0 0 -0.25918,-0.46615 0.38029888,0.37601302 0 0 0 -0.46653,0.24406 7.8172617,7.7291633 0 0 0 -0.1407,-2.30633 0.6127041,0.60579909 0 0 0 0.38507,0.32947 0.6127041,0.60579909 0 0 0 0.76027,-0.41246 0.6127041,0.60579909 0 0 0 -0.41963,-0.74925 0.6127041,0.60579909 0 0 0 -0.75779,0.41246 0.6127041,0.60579909 0 0 0 -0.0222,0.20013 7.8172617,7.7291633 0 0 0 -1.80191,-3.35088 1.0563867,1.0444815 0 0 0 0.27398,0.12202 1.0563867,1.0444815 0 0 0 1.30824,-0.71264 1.0563867,1.0444815 0 0 0 -0.72076,-1.2935 1.0563867,1.0444815 0 0 0 -1.31071,0.71264 1.0563867,1.0444815 0 0 0 0.0987,0.80539 7.8172617,7.7291633 0 0 0 -3.25825,-1.87191 7.8172617,7.7291633 0 0 0 -3.65074,-0.16596 1.9437517,1.9218461 0 0 0 0.96515,-1.16659 1.9437517,1.9218461 0 0 0 -1.328,-2.37954 1.9437517,1.9218461 0 0 0 -0.57512,-0.0756 z M 171.73118,512.71925 a 1.3614091,1.3460664 0 0 0 -0.13576,0.61258 1.3614091,1.3460664 0 0 0 1.38724,1.3179 1.3614091,1.3460664 0 0 0 1.33539,-1.3716 1.3614091,1.3460664 0 0 0 -1.38724,-1.31788 1.3614091,1.3460664 0 0 0 -1.19963,0.759 z M 311.58941,224.93833 a 0.10155886,0.10041432 0 0 0 -0.079,0.0537 0.10155886,0.10041432 0 0 0 0.042,0.13423 0.10155886,0.10041432 0 0 0 0.13823,-0.0415 0.10155886,0.10041432 0 0 0 -0.042,-0.13423 0.10155886,0.10041432 0 0 0 -0.0592,-0.0122 z m 26.62144,2.51866 a 0.06723677,0.06647903 0 0 0 -0.037,0.0244 0.06723677,0.06647903 0 0 0 0.0124,0.0927 0.06723677,0.06647903 0 0 0 0.0938,-0.0122 0.06723677,0.06647903 0 0 0 -0.0124,-0.0927 0.06723677,0.06647903 0 0 0 -0.0568,-0.0122 z m -62.21544,0.73949 a 0.14789367,0.14622695 0 0 0 -0.12341,0.10494 0.14789367,0.14622695 0 0 0 0.10121,0.1806 0.14789367,0.14622695 0 0 0 0.18265,-0.0976 0.14789367,0.14622695 0 0 0 -0.1012,-0.18303 0.14789367,0.14622695 0 0 0 -0.0593,-0.005 z m -55.06454,19.87591 a 0.21825395,0.21579429 0 0 0 -0.21475,0.19768 0.21825395,0.21579429 0 0 0 0.19747,0.23429 0.21825395,0.21579429 0 0 0 0.23697,-0.19768 0.21825395,0.21579429 0 0 0 -0.19747,-0.23185 0.21825395,0.21579429 0 0 0 -0.0222,-0.002 z m -68.35182,72.28447 a 0.42697072,0.42215888 0 0 0 -0.19253,0.0439 0.42697072,0.42215888 0 0 0 -0.19254,0.56864 0.42697072,0.42215888 0 0 0 0.57267,0.18792 0.42697072,0.42215888 0 0 0 0.19253,-0.5662 0.42697072,0.42215888 0 0 0 -0.38013,-0.23429 z m -3.46066,0.21721 a 0.73195087,0.72370198 0 0 0 -0.33323,0.0756 0.73195087,0.72370198 0 0 0 -0.3283,0.97135 0.73195087,0.72370198 0 0 0 0.98242,0.32459 0.73195087,0.72370198 0 0 0 0.32829,-0.97134 0.73195087,0.72370198 0 0 0 -0.64918,-0.40025 z m 0.50848,27.94683 a 0.06723675,0.06647901 0 0 0 -0.0346,0.0171 0.06723675,0.06647901 0 0 0 -0.01,0.0928 0.06723675,0.06647901 0 0 0 0.0963,0.01 0.06723675,0.06647901 0 0 0 0.007,-0.0952 0.06723675,0.06647901 0 0 0 -0.0592,-0.0244 z m -6.19562,29.81387 a 0.14789364,0.14622692 0 0 0 -0.0963,0.0562 0.14789364,0.14622692 0 0 0 0.0247,0.20501 0.14789364,0.14622692 0 0 0 0.20735,-0.0269 0.14789364,0.14622692 0 0 0 -0.0247,-0.20501 0.14789364,0.14622692 0 0 0 -0.11107,-0.0293 z m 1.37241,24.18838 a 0.06723675,0.06647901 0 0 0 -0.0543,0.0415 0.06723675,0.06647901 0 0 0 0.037,0.0879 0.06723675,0.06647901 0 0 0 0.0889,-0.0366 0.06723675,0.06647901 0 0 0 -0.037,-0.0879 0.06723675,0.06647901 0 0 0 -0.0346,-0.005 z m 327.59308,38.41927 a 0.06723676,0.06647902 0 0 0 -0.0345,0.0195 0.06723676,0.06647902 0 0 0 0,0.0927 0.06723676,0.06647902 0 0 0 0.0938,0 0.06723676,0.06647902 0 0 0 0.002,-0.0927 0.06723676,0.06647902 0 0 0 -0.0617,-0.0195 z m -9.34527,24.87905 a 0.10155887,0.10041433 0 0 0 -0.0346,0.0122 0.10155887,0.10041433 0 0 0 -0.0395,0.13667 0.10155887,0.10041433 0 0 0 0.14069,0.0391 0.10155887,0.10041433 0 0 0 0.037,-0.13911 0.10155887,0.10041433 0 0 0 -0.10367,-0.0489 z m -18.21169,28.31293 a 0.14789365,0.14622693 0 0 0 -0.0518,0.0146 0.14789365,0.14622693 0 0 0 -0.0741,0.19281 0.14789365,0.14622693 0 0 0 0.19747,0.0732 0.14789365,0.14622693 0 0 0 0.0716,-0.19525 0.14789365,0.14622693 0 0 0 -0.14317,-0.0854 z M 174.829,506.35184 a 0.79415423,0.78520433 0 0 0 -0.77754,0.8005 0.79415423,0.78520433 0 0 0 0.80963,0.77122 0.79415423,0.78520433 0 0 0 0.77754,-0.80051 0.79415423,0.78520433 0 0 0 -0.80963,-0.77121 z m 234.30078,22.74111 a 0.21825398,0.21579432 0 0 0 -0.0148,0.002 0.21825398,0.21579432 0 0 0 -0.19499,0.23673 0.21825398,0.21579432 0 0 0 0.23943,0.19281 0.21825398,0.21579432 0 0 0 0.195,-0.23918 0.21825398,0.21579432 0 0 0 -0.22462,-0.19281 z M 249.7541,546.96517 a 0.14789364,0.14622692 0 0 0 -0.0666,0.0244 0.14789364,0.14622692 0 0 0 -0.0395,0.20258 0.14789364,0.14622692 0 0 0 0.20487,0.0415 0.14789364,0.14622692 0 0 0 0.0395,-0.205 0.14789364,0.14622692 0 0 0 -0.13824,-0.0635 z m 22.55109,4.6395 a 3.5539542,3.5139021 0 0 0 -2.34989,0.86884 0.06723675,0.06647901 0 0 0 -0.0123,-0.0854 0.06723675,0.06647901 0 0 0 -0.0963,0.007 0.06723675,0.06647901 0 0 0 0.007,0.0928 0.06723675,0.06647901 0 0 0 0.0642,0.0146 3.5539542,3.5139021 0 0 0 -0.26658,0.26602 0.1152632,0.11396422 0 0 0 -0.0272,-0.13912 0.1152632,0.11396422 0 0 0 -0.16292,0.0122 0.1152632,0.11396422 0 0 0 0.0148,0.16107 0.1152632,0.11396422 0 0 0 0.1333,0.01 3.5539542,3.5139021 0 0 0 -0.0271,0.0293 3.5539542,3.5139021 0 0 0 -0.34805,0.48079 0.1728949,0.17094642 0 0 0 -0.0543,-0.17084 0.1728949,0.17094642 0 0 0 -0.24437,0.0196 0.1728949,0.17094642 0 0 0 0.0197,0.24161 0.1728949,0.17094642 0 0 0 0.23697,-0.0122 3.5539542,3.5139021 0 0 0 -0.37272,0.97867 0.27855305,0.27541383 0 0 0 -0.0987,-0.20745 0.27855305,0.27541383 0 0 0 -0.39246,0.0317 0.27855305,0.27541383 0 0 0 0.0321,0.38804 0.27855305,0.27541383 0 0 0 0.39246,-0.0317 0.27855305,0.27541383 0 0 0 0.0469,-0.0781 3.5539542,3.5139021 0 0 0 0.11602,1.7206 0.48026403,0.47485159 0 0 0 -0.0889,-0.10007 0.48026403,0.47485159 0 0 0 -0.67634,0.0537 0.48026403,0.47485159 0 0 0 0.0543,0.66871 0.48026403,0.47485159 0 0 0 0.67634,-0.0537 0.48026403,0.47485159 0 0 0 0.11107,-0.35144 3.5539542,3.5139021 0 0 0 0.99969,1.37403 3.5539542,3.5139021 0 0 0 1.4835,0.74193 0.88368594,0.87372704 0 0 0 -0.61956,0.30506 0.88368594,0.87372704 0 0 0 0.10121,1.2325 0.88368594,0.87372704 0 0 0 1.24652,-0.10006 0.88368594,0.87372704 0 0 0 -0.10368,-1.23248 0.88368594,0.87372704 0 0 0 -0.22708,-0.13912 3.5539542,3.5139021 0 0 0 3.11755,-1.20075 0.48026411,0.47485166 0 0 0 0.1333,0.53936 0.48026411,0.47485166 0 0 0 0.67634,-0.0537 0.48026411,0.47485166 0 0 0 -0.0543,-0.66871 0.48026411,0.47485166 0 0 0 -0.585,-0.0293 3.5539542,3.5139021 0 0 0 0.63683,-1.52047 0.27855304,0.27541382 0 0 0 0.0987,0.18792 0.27855304,0.27541382 0 0 0 0.39248,-0.0317 0.27855304,0.27541382 0 0 0 -0.0321,-0.38804 0.27855304,0.27541382 0 0 0 -0.39247,0.0317 0.27855304,0.27541382 0 0 0 -0.0469,0.0732 3.5539542,3.5139021 0 0 0 -0.0197,-0.98843 0.17289493,0.17094645 0 0 0 0.0494,0.0659 0.17289493,0.17094645 0 0 0 0.24437,-0.0195 0.17289493,0.17094645 0 0 0 -0.0197,-0.24161 0.17289493,0.17094645 0 0 0 -0.24437,0.0195 0.17289493,0.17094645 0 0 0 -0.042,0.10983 3.5539542,3.5139021 0 0 0 -0.20734,-0.70044 0.11526317,0.11396419 0 0 0 0.0271,0.0317 0.11526317,0.11396419 0 0 0 0.16292,-0.0146 0.11526317,0.11396419 0 0 0 -0.0148,-0.15865 0.11526317,0.11396419 0 0 0 -0.16045,0.0123 0.11526317,0.11396419 0 0 0 -0.0198,0.11714 3.5539542,3.5139021 0 0 0 -0.9824,-1.33743 3.5539542,3.5139021 0 0 0 -2.28573,-0.83222 z m 3.07066,1.59613 a 0.06723675,0.06647901 0 0 0 -0.037,0.022 0.06723675,0.06647901 0 0 0 0.007,0.0952 0.06723675,0.06647901 0 0 0 0.0938,-0.007 0.06723675,0.06647901 0 0 0 -0.007,-0.0952 0.06723675,0.06647901 0 0 0 -0.0568,-0.0146 z m 61.00841,8.94953 a 0.42697067,0.42215883 0 0 0 -0.34064,0.20745 0.42697067,0.42215883 0 0 0 0.15057,0.57841 0.42697067,0.42215883 0 0 0 0.58501,-0.14887 0.42697067,0.42215883 0 0 0 -0.15057,-0.57842 0.42697067,0.42215883 0 0 0 -0.24437,-0.0585 z"
       id="path4242-2"
       inkscape:connector-curvature="0" />
  </g>
</svg>
