<?xml version="1.0" encoding="UTF-8" standalone="no"?>
<!-- Created with Inkscape (http://www.inkscape.org/) -->

<svg
   xmlns:dc="http://purl.org/dc/elements/1.1/"
   xmlns:cc="http://creativecommons.org/ns#"
   xmlns:rdf="http://www.w3.org/1999/02/22-rdf-syntax-ns#"
   xmlns:svg="http://www.w3.org/2000/svg"
   xmlns="http://www.w3.org/2000/svg"
   xmlns:sodipodi="http://sodipodi.sourceforge.net/DTD/sodipodi-0.dtd"
   xmlns:inkscape="http://www.inkscape.org/namespaces/inkscape"
   width="112.88889mm"
   height="51.746391mm"
   viewBox="0 0 399.99995 183.35335"
   id="svg2"
   version="1.1"
   inkscape:version="0.91 r13725"
   sodipodi:docname="pacemaker.svg">
  <defs
     id="defs4">
    <marker
       inkscape:stockid="Arrow1Lstart"
       orient="auto"
       refY="0"
       refX="0"
       id="Arrow1Lstart"
       style="overflow:visible"
       inkscape:isstock="true">
      <path
         id="path4876"
         d="M 0,0 5,-5 -12.5,0 5,5 0,0 Z"
         style="fill:#000000;fill-opacity:1;fill-rule:evenodd;stroke:#000000;stroke-width:1pt;stroke-opacity:1"
         transform="matrix(0.8,0,0,0.8,10,0)"
         inkscape:connector-curvature="0" />
    </marker>
    <inkscape:path-effect
       effect="powerstroke"
       id="path-effect4870"
       is_visible="true"
       offset_points="0,0.14586916"
       sort_points="true"
       interpolator_type="Linear"
       interpolator_beta="0.2"
       start_linecap_type="zerowidth"
       linejoin_type="round"
       miter_limit="4"
       end_linecap_type="zerowidth"
       cusp_linecap_type="round" />
    <inkscape:path-effect
       effect="powerstroke"
       id="path-effect4537"
       is_visible="true"
       offset_points="0,0.5"
       sort_points="true"
       interpolator_type="Linear"
       interpolator_beta="0.2"
       start_linecap_type="zerowidth"
       linejoin_type="round"
       miter_limit="4"
       end_linecap_type="zerowidth"
       cusp_linecap_type="round" />
  </defs>
  <sodipodi:namedview
     id="base"
     pagecolor="#ffffff"
     bordercolor="#666666"
     borderopacity="1.0"
     inkscape:pageopacity="0.0"
     inkscape:pageshadow="2"
     inkscape:zoom="0.9899495"
     inkscape:cx="398.53843"
     inkscape:cy="210.07137"
     inkscape:document-units="px"
     inkscape:current-layer="layer1"
     showgrid="false"
     inkscape:snap-object-midpoints="false"
     inkscape:object-paths="true"
     inkscape:snap-intersection-paths="true"
     inkscape:object-nodes="true"
     inkscape:snap-smooth-nodes="true"
     inkscape:snap-midpoints="true"
     fit-margin-top="0"
     fit-margin-left="0"
     fit-margin-right="0"
     fit-margin-bottom="0"
     inkscape:window-width="1440"
     inkscape:window-height="800"
     inkscape:window-x="0"
     inkscape:window-y="1"
     inkscape:window-maximized="1"
     inkscape:snap-center="false"
     inkscape:snap-others="false" />
  <metadata
     id="metadata7">
    <rdf:RDF>
      <cc:Work
         rdf:about="">
        <dc:format>image/svg+xml</dc:format>
        <dc:type
           rdf:resource="http://purl.org/dc/dcmitype/StillImage" />
        <dc:title></dc:title>
      </cc:Work>
    </rdf:RDF>
  </metadata>
  <g
     inkscape:label="Layer 1"
     inkscape:groupmode="layer"
     id="layer1"
     transform="translate(-259.77541,-402.05434)">
    <path
       style="fill:#000000;fill-opacity:0.31372549;stroke:none;stroke-width:0.1;stroke-miterlimit:4;stroke-dasharray:none"
       d="m 277.12653,402.05434 c -9.6122,0 -17.35114,7.73894 -17.35114,17.35113 l 0,148.65109 c 0,9.61219 7.73894,17.35113 17.35114,17.35113 l 365.29865,0 c 9.61218,0 17.35021,-7.73894 17.35021,-17.35113 l 0,-148.65109 c 0,-9.61219 -7.73803,-17.35113 -17.35021,-17.35113 l -365.29865,0 z m 1.5078,9.2844 362.28213,0 c 5.51586,0 9.95626,4.4413 9.95626,9.95716 l 0,144.87114 c 0,5.51585 -4.4404,9.95624 -9.95626,9.95624 l -362.28213,0 c -5.51584,0 -9.95625,-4.44039 -9.95625,-9.95624 l 0,-144.87114 c 0,-5.51586 4.44041,-9.95716 9.95625,-9.95716 z m 225.35622,9.21096 c -3.72817,0.0411 -6.8081,0.44828 -8.74221,0.96652 -10.31523,2.76396 -28.95049,9.53107 -35.47295,33.88263 -6.41954,-23.95803 -25.44955,-31.19712 -35.47204,-33.88263 -10.02248,-2.68551 -53.22483,-1.58447 -53.22483,39.79962 0,10.46725 4.27809,19.96825 11.01797,28.9376 l 45.78644,0 3.56869,-7.82193 a 3.4819992,3.4819992 0 0 1 6.44105,0.26022 l 3.6367,10.04329 9.33154,-29.61941 a 3.4819992,3.4819992 0 0 1 3.24955,-2.43444 3.4819992,3.4819992 0 0 1 3.40639,2.48158 l 14.4552,48.28978 9.01693,-28.62117 a 3.4819992,3.4819992 0 0 1 6.4882,-0.39985 l 3.5687,7.82193 46.62601,0 c 6.61768,-8.86176 10.80038,-18.33338 10.80038,-28.9376 0,-34.25496 -28.32635,-40.94438 -44.48172,-40.76614 z m 33.68134,69.70374 c -1.76355,2.36159 -3.70332,4.6785 -5.78008,6.96331 l 82.60038,0 a 3.4819992,3.4819992 0 1 0 0,-6.96331 l -76.8203,0 z m -5.78008,6.96331 -43.08453,0 a 3.4819992,3.4819992 0 0 1 -3.16703,-2.03641 l -0.73441,-1.60935 -9.69785,30.78359 a 3.4819992,3.4819992 0 0 1 -6.65684,-0.0472 l -14.45429,-48.28977 -9.01694,28.62117 a 3.4819992,3.4819992 0 0 1 -6.59428,0.13962 l -4.23782,-11.7007 -0.95927,2.10259 a 3.4819992,3.4819992 0 0 1 -3.16794,2.03641 l -42.23678,0 c 21.28741,23.46444 56.99152,43.89159 71.89156,69.6992 15.41408,-26.69797 51.00312,-46.4708 72.11642,-69.6992 z m -144.00798,0 c -2.077,-2.28942 -4.01765,-4.60823 -5.78734,-6.96331 l -76.9998,0 a 3.4819992,3.4819992 0 1 0 0,6.96331 l 82.78714,0 z"
       id="rect4840"
       inkscape:connector-curvature="0" />
    <g
       transform="translate(18.318376,-0.48845613)"
       id="layer1-1"
       inkscape:label="Layer 1" />
    <text
       xml:space="preserve"
       style="font-style:normal;font-weight:normal;font-size:40px;line-height:125%;font-family:sans-serif;letter-spacing:0px;word-spacing:0px;fill:#000000;fill-opacity:1;stroke:none;stroke-width:1px;stroke-linecap:butt;stroke-linejoin:miter;stroke-opacity:1"
       x="368.38861"
       y="336.40527"
       id="text4491"
       sodipodi:linespacing="125%"><tspan
         sodipodi:role="line"
         id="tspan4493"
         x="368.38861"
         y="336.40527" /></text>
    <text
       xml:space="preserve"
       style="font-style:normal;font-weight:normal;font-size:40px;line-height:125%;font-family:sans-serif;letter-spacing:0px;word-spacing:0px;fill:#000000;fill-opacity:1;stroke:none;stroke-width:1px;stroke-linecap:butt;stroke-linejoin:miter;stroke-opacity:1"
       x="378.49014"
       y="335.39511"
       id="text4495"
       sodipodi:linespacing="125%"><tspan
         sodipodi:role="line"
         id="tspan4497"
         x="378.49014"
         y="335.39511" /></text>
  </g>
</svg>
