<?xml version="1.0" encoding="UTF-8" standalone="no"?>
<!-- Created with Inkscape (http://www.inkscape.org/) -->

<svg
   xmlns:dc="http://purl.org/dc/elements/1.1/"
   xmlns:cc="http://creativecommons.org/ns#"
   xmlns:rdf="http://www.w3.org/1999/02/22-rdf-syntax-ns#"
   xmlns:svg="http://www.w3.org/2000/svg"
   xmlns="http://www.w3.org/2000/svg"
   xmlns:sodipodi="http://sodipodi.sourceforge.net/DTD/sodipodi-0.dtd"
   xmlns:inkscape="http://www.inkscape.org/namespaces/inkscape"
   width="112.88887mm"
   height="45.511547mm"
   viewBox="0 0 399.99993 161.26139"
   id="svg2"
   version="1.1"
   inkscape:version="0.91 r13725"
   sodipodi:docname="pid.svg">
  <defs
     id="defs4" />
  <sodipodi:namedview
     id="base"
     pagecolor="#ffffff"
     bordercolor="#666666"
     borderopacity="1.0"
     inkscape:pageopacity="0.0"
     inkscape:pageshadow="2"
     inkscape:zoom="1.4"
     inkscape:cx="69.747074"
     inkscape:cy="78.018752"
     inkscape:document-units="px"
     inkscape:current-layer="layer1"
     showgrid="false"
     inkscape:snap-object-midpoints="true"
     inkscape:object-paths="true"
     inkscape:snap-intersection-paths="true"
     inkscape:object-nodes="true"
     inkscape:snap-smooth-nodes="true"
     inkscape:snap-midpoints="true"
     fit-margin-top="0"
     fit-margin-left="0"
     fit-margin-right="0"
     fit-margin-bottom="0"
     inkscape:window-width="1440"
     inkscape:window-height="800"
     inkscape:window-x="0"
     inkscape:window-y="1"
     inkscape:window-maximized="1" />
  <metadata
     id="metadata7">
    <rdf:RDF>
      <cc:Work
         rdf:about="">
        <dc:format>image/svg+xml</dc:format>
        <dc:type
           rdf:resource="http://purl.org/dc/dcmitype/StillImage" />
        <dc:title></dc:title>
      </cc:Work>
    </rdf:RDF>
  </metadata>
  <g
     inkscape:label="Layer 1"
     inkscape:groupmode="layer"
     id="layer1"
     transform="translate(-134.03323,-364.04242)">
    <g
       transform="translate(18.318376,-0.48845613)"
       id="layer1-1"
       inkscape:label="Layer 1" />
    <path
       id="path4271-8"
       style="fill:#000000;fill-opacity:0.31372549"
       d="m 211.25953,469.40728 c 0,3.38807 0.004,3.44711 -4.35882,3.44711 -4.36303,0 -4.37575,3.22903 0,3.24396 4.37575,0.0149 4.35882,0.016 4.35882,3.29976 0,3.28375 4.25137,3.24962 4.26953,0 0.0182,-3.24963 0.004,-3.29976 4.55762,-3.29976 4.55321,0 4.60007,-3.24396 0,-3.24396 -4.60008,0 -4.47819,0.037 -4.55762,-3.44711 -0.0794,-3.48414 -4.26953,-3.38808 -4.26953,0 z m 18.39286,-45.09517 c 0,3.38807 0.004,3.44711 -4.35882,3.44711 -4.36303,0 -4.37575,3.22903 0,3.24396 4.37575,0.0149 4.35882,0.016 4.35882,3.29976 0,3.28375 4.25137,3.24962 4.26953,0 0.0182,-3.24963 0.004,-3.29976 4.55762,-3.29976 4.55321,0 4.60007,-3.24396 0,-3.24396 -4.60008,0 -4.47819,0.037 -4.55762,-3.44711 -0.0794,-3.48414 -4.26953,-3.38808 -4.26953,0 z m 102.16599,70.59398 0,17.14486 4.76562,0 c 4.02344,0 6.96615,-0.68915 8.82813,-2.06742 1.875,-1.37829 2.8125,-3.554 2.8125,-6.52716 0,-2.95346 -0.9375,-5.11442 -2.8125,-6.48285 -1.86198,-1.37829 -4.80469,-2.06743 -8.82813,-2.06743 z m -3.94532,-2.45138 8.10547,0 c 5.65104,0 9.79818,0.89097 12.44141,2.67289 2.64323,1.77208 3.96484,4.54833 3.96484,8.32877 0,3.80013 -1.32812,6.59114 -3.98437,8.37307 -2.65625,1.78192 -6.79688,2.67288 -12.42188,2.67288 l -8.10547,0 z m 10.28321,-60.51351 3.94531,0 0,22.0476 -3.94531,0 z m -72.98828,-7.34084 0,9.44075 -0.12627,8.42332 -12.73829,0 c -7.00633,0 -18.95192,-0.16153 -19.21289,-0.35884 -0.26098,-0.19732 0.13877,-0.22544 0.73565,-1.30549 1.27731,-2.31135 2.04388,-2.3875 -9.84766,1.00123 -7.47623,2.1305 -7.53974,2.16403 -5.29687,2.82795 8.42034,2.49252 16.26024,4.45212 15.86328,3.9665 -0.25839,-0.3161 -0.75906,-1.33738 -1.11328,-2.27122 l -0.64453,-0.93927 19.1914,0 13.18946,0 0,7.53731 0,8.29628 1.89257,0 c 1.33007,0 1.89063,0.3125 1.89063,1.04996 0,0.57695 0.23023,1.22108 0.50976,1.43243 0.27954,0.21135 33.39617,0.31946 73.59375,0.23923 l 73.08594,-0.1462 0,-18.02351 0,-18.02352 -2.08008,-0.18163 c -1.63458,-0.14221 -2.08203,-0.48053 -2.08203,-1.5742 l 0,-1.39108 -73.40429,0 z m -52.97266,-14.18254 c 0,3.38808 0.004,3.44712 -4.35882,3.44712 -4.36303,0 -4.37575,3.22902 0,3.24396 4.37575,0.0149 4.35882,0.016 4.35882,3.29976 0,3.28375 4.25137,3.24962 4.26953,0 0.0182,-3.24963 0.004,-3.29976 4.55762,-3.29976 4.55321,0 4.60007,-3.24396 0,-3.24396 -4.60008,0 -4.47819,0.0371 -4.55762,-3.44712 -0.0794,-3.48413 -4.26953,-3.38807 -4.26953,0 z m 122.46484,-36.5373 0,8.28447 4.96094,0 c 1.83594,0 3.25521,-0.35934 4.25781,-1.07802 1.00261,-0.71867 1.50391,-1.74254 1.50391,-3.0716 0,-1.31921 -0.5013,-2.33816 -1.50391,-3.05684 -1.0026,-0.71867 -2.42187,-1.07801 -4.25781,-1.07801 z m -3.94531,-2.45138 8.90625,0 c 3.26823,0 5.73568,0.56116 7.40234,1.68348 1.67969,1.11247 2.51954,2.74672 2.51954,4.90275 0,2.17572 -0.83985,3.81982 -2.51954,4.93229 -1.66666,1.11247 -4.13411,1.6687 -7.40234,1.6687 l -4.96094,0 0,8.8604 -3.94531,0 z m -19.0547,-7.38594 c -26.03943,-0.009 -44.8445,0.0606 -45.54687,0.18903 -1.66843,0.3049 -1.70117,0.47867 -1.70117,8.59753 l 0,8.28594 -35.94727,0 -37.19532,0.13438 0,14.01714 c 0,13.78554 1.22479,13.88423 -0.3125,13.88423 -0.8598,0 -2.22227,-0.2664 -3.02734,-0.59216 -0.80507,-0.3258 -1.46484,-0.46296 -1.46484,-0.30569 0,0.15729 1.4089,3.13663 3.1289,6.62019 1.72,3.48357 2.97022,6.45071 2.7793,6.59509 -12.30055,0 -21.90418,9.86007 -22.17774,20.2962 l -21.28906,0 -14.87304,0 0,2.79398 c 2.56665,0.15143 6.90723,0.25728 13.92382,0.30273 l 22.3418,0.14471 c 0,11.38996 10.29446,20.57679 22.19727,20.57679 0.44162,0.86846 -0.38269,2.54283 -2.21094,6.22295 -1.69092,3.40368 -2.94883,6.28378 -2.79492,6.40015 0.15392,0.11638 1.20081,-0.053 2.32617,-0.37657 1.12536,-0.32349 1.30297,-0.65714 1.70508,-0.65714 0.45297,0 0.70203,5.49595 0.65625,14.44687 l -0.0742,14.44835 36.29101,0.2156 35.21876,0.14915 0.20898,7.86212 0.21094,7.86064 2.08008,0.18164 c 1.63457,0.14219 2.08203,0.48054 2.08203,1.5742 l 0,1.39256 73.7832,0 73.78516,0 0,-10.01372 c 0,-7.63276 0.22423,-10.01058 0.94531,-10.00486 0.52027,0.004 4.67412,1.03398 9.23047,2.28894 4.55635,1.25489 8.36975,2.28007 8.47461,2.28007 0.10485,0 -0.30316,-0.89195 -0.90625,-1.98325 -0.60305,-1.09137 -1.0957,-1.35552 -1.0957,-1.51956 0,-0.16405 14.31483,-0.36542 31.81054,-0.44745 l 31.81055,-0.14915 -0.0391,-30.65991 -0.0391,-29.08571 38.07812,0 0,-2.65665 -38.05469,0 0,-29.33675 0,-30.69387 -31.40429,0 c -33.89155,0 -32.48161,0.79681 -30.26954,-2.41003 0.81348,-1.17931 0.86583,-1.56363 0.18555,-1.38074 -9.94175,2.67282 -17.204,4.7901 -17.20703,5.01646 -0.002,0.15735 3.65705,1.28633 8.13086,2.50748 4.47381,1.22116 8.55788,2.34185 9.07617,2.49126 0.6777,0.19535 0.62485,-0.18673 -0.18555,-1.36156 -2.21042,-3.20447 -3.56327,-2.20623 29.51172,-2.20623 l 28.65039,0 0,28.60873 0,28.718 -28.65039,0 c -30.46934,0 -30.64843,-0.006 -30.64843,-1.18139 0,-0.65008 0.38106,-0.97094 0.8457,-1.62735 0.74161,-1.04773 0.67345,-1.14084 -0.56641,-0.7679 -0.7768,0.23366 -4.73485,1.33378 -8.79297,2.44399 -7.36464,2.0148 -8.55321,2.63963 -6.05273,3.1794 0.72838,0.15723 4.65891,1.20974 8.73437,2.33915 4.07544,1.12941 7.19785,1.79431 6.93946,1.4782 -0.25839,-0.3161 -0.75906,-1.33885 -1.11328,-2.27269 l -0.64453,-0.93477 30.9746,0 28.97461,0 0,28.70324 0,28.71801 -29.02734,0 c -17.0649,0 -31.02734,-0.13525 -31.02734,-0.30273 0,-0.16741 0.48486,-0.43423 1.07812,-1.50774 l 1.08008,-1.95224 -8.08008,2.20328 c -4.44327,1.21198 -8.67396,2.38347 -9.40234,2.60348 -1.22369,0.36962 -1.32422,-0.21338 -1.32422,-7.67163 l 0,-8.07181 -1.89258,0 c -1.51451,0 -1.89258,-0.28505 -1.89258,-1.43243 l 0,-1.43391 -73.97265,0.1462 -73.97266,0.14472 -0.20703,9.29898 -0.20899,7.78533 -34.41211,0 -33.48828,-0.0679 0,-12.28051 c 0,-10.79664 0.20683,-13.73577 0.94726,-13.52539 2.87754,0.81764 3.42383,1.0918 3.42383,0.67487 0,-0.25803 -1.35416,-3.15721 -3.00976,-6.4415 -1.57696,-3.12831 -2.77493,-5.69409 -2.80664,-5.99701 13.06199,0 22.34353,-9.60566 22.34353,-21.90902 0,-12.18093 -9.51289,-22.01637 -23.22049,-22.01637 l 2.52344,-5.23797 c 1.38704,-2.88066 2.87761,-5.93421 3.31445,-6.78706 0.76634,-1.49611 0.72853,-1.53124 -1.11523,-1.00123 -4.21815,1.21257 -3.33398,1.76478 -3.33398,-12.4769 l 0,-11.64846 34.41992,-0.13438 35.16992,0 0.20899,7.49884 0.20703,9.0125 2.08203,0.18163 c 1.63587,0.14232 2.08008,0.47891 2.08008,1.57568 l 0,1.39551 73.5957,-0.1462 73.59375,-0.1462 0,-18.31 c 0,-17.96499 -0.0276,-18.31214 -1.53515,-18.47539 -0.84511,-0.0915 -1.86599,-0.73571 -2.26954,-1.43095 l -0.73437,-1.26409 -71.89258,-0.15505 c -9.88515,-0.0216 -19.36902,-0.0339 -28.04883,-0.0369 z m -119.60938,66.68184 10.70313,0 0.0898,5.0327 c 0.0345,1.94383 -3.12799,2.6689 -3.82422,0.5715 -0.45072,-1.35777 -0.75242,-2.16506 -5.84765,-2.00246 l -4.48633,0.14325 c 2.47057,2.4816 4.80643,5.43426 7.78906,8.26674 0,0.40864 -2.15347,2.64789 -6.36523,7.18282 0,0 -1.42558,1.00123 3,1.00123 3.24603,0 6.48708,0.68689 6.59961,-2.00393 -0.0417,-2.11728 3.70817,-2.13221 3.76367,0.28501 l 0.18945,5.42404 -11.08008,0 c -6.01734,0 -12.66015,0.0609 -12.66015,-0.34999 0,-0.34105 3.33015,-5.02587 5.8789,-7.3556 l 4.63282,-4.23527 c -1.65531,-1.88012 -3.42376,-3.69975 -5.22657,-5.5023 -1.80563,-1.7856 -5.05859,-6.13768 -5.05859,-6.31893 0,-0.18128 7.11584,-0.13881 11.90234,-0.13881 z"
       inkscape:connector-curvature="0"
       sodipodi:nodetypes="sscsssssssscssssssccscscsccscsssccccccccccsccsssccccccsscsccccscccsscssssssccsssssccscscsccccccscccsscsscccccsccsscscccccccscccsccscssccccccccssscsssscccssssssssccccccsscccsscsscccccccssssccccsssccccccscccssccccccccsccccscccsscccssc" />
  </g>
</svg>
