<?xml version="1.0" encoding="UTF-8" standalone="no"?>
<!-- Created with Inkscape (http://www.inkscape.org/) -->

<svg
   xmlns:dc="http://purl.org/dc/elements/1.1/"
   xmlns:cc="http://creativecommons.org/ns#"
   xmlns:rdf="http://www.w3.org/1999/02/22-rdf-syntax-ns#"
   xmlns:svg="http://www.w3.org/2000/svg"
   xmlns="http://www.w3.org/2000/svg"
   xmlns:sodipodi="http://sodipodi.sourceforge.net/DTD/sodipodi-0.dtd"
   xmlns:inkscape="http://www.inkscape.org/namespaces/inkscape"
   width="112.88889mm"
   height="45.155556mm"
   viewBox="0 0 399.99998 160"
   id="svg2"
   version="1.1"
   inkscape:version="0.91 r13725"
   sodipodi:docname="pillsafe.svg">
  <defs
     id="defs4" />
  <sodipodi:namedview
     id="base"
     pagecolor="#ffffff"
     bordercolor="#666666"
     borderopacity="1.0"
     inkscape:pageopacity="0.0"
     inkscape:pageshadow="2"
     inkscape:zoom="1.979899"
     inkscape:cx="187.92657"
     inkscape:cy="56.804422"
     inkscape:document-units="px"
     inkscape:current-layer="layer1"
     showgrid="false"
     inkscape:snap-object-midpoints="true"
     inkscape:object-paths="true"
     inkscape:snap-intersection-paths="true"
     inkscape:object-nodes="true"
     inkscape:snap-smooth-nodes="true"
     inkscape:snap-midpoints="true"
     fit-margin-top="0"
     fit-margin-left="0"
     fit-margin-right="0"
     fit-margin-bottom="0"
     inkscape:window-width="1440"
     inkscape:window-height="800"
     inkscape:window-x="0"
     inkscape:window-y="1"
     inkscape:window-maximized="1"
     inkscape:snap-center="true" />
  <metadata
     id="metadata7">
    <rdf:RDF>
      <cc:Work
         rdf:about="">
        <dc:format>image/svg+xml</dc:format>
        <dc:type
           rdf:resource="http://purl.org/dc/dcmitype/StillImage" />
        <dc:title></dc:title>
      </cc:Work>
    </rdf:RDF>
  </metadata>
  <g
     inkscape:label="Layer 1"
     inkscape:groupmode="layer"
     id="layer1"
     transform="translate(-200.19729,-329.44285)">
    <g
       transform="translate(18.318376,-0.48845613)"
       id="layer1-1"
       inkscape:label="Layer 1" />
    <path
       style="fill:#000000;fill-opacity:0.31372549;stroke:none;stroke-width:0.1;stroke-miterlimit:4;stroke-dasharray:none"
       d="m 268.09729,329.44285 a 67.900266,80.000793 0 0 0 -67.9,80 67.900266,80.000793 0 0 0 67.9,80 l 264.2,0 a 67.900266,80.000793 0 0 0 67.9,-80 67.900266,80.000793 0 0 0 -67.9,-80 l -264.2,0 z m 0.778,8.6968 130.6751,0 0,142.6063 -130.6751,0 a 60.519767,71.305012 0 0 1 -60.5187,-71.3031 60.519767,71.305012 0 0 1 60.5187,-71.3032 z m 42.4657,42.7157 0,7.2812 5.75,0 0,-7.2812 -5.75,0 z m 17.75,0 0,48.625 5.75,0 0,-48.625 -5.75,0 z m 17.75,0 0,48.625 5.75,0 0,-48.625 -5.75,0 z m 172.9562,0 5.4375,0 0,4.7812 -5.5,0 c -2.0625,0 -3.5,0.417 -4.3125,1.25 -0.792,0.833 -1.1875,2.3333 -1.1875,4.5 l 0,3.0938 9.4688,0 0,4.4687 -9.4688,0 0,30.5313 -5.7812,0 0,-30.5313 -5.5,0 0,-4.4687 5.5,0 0,-2.4375 c 0,-3.8959 0.906,-6.7292 2.7187,-8.5 1.8125,-1.7917 4.6875,-2.6875 8.625,-2.6875 z m -232.3312,12.7812 c -2.5625,0 -4.7709,0.51 -6.625,1.5313 -1.8334,1 -3.3542,2.5416 -4.5625,4.625 l 0,-5.3125 -5.7813,0 0,48.3125 5.7813,0 0,-18.5625 c 1.2083,2.0833 2.7291,3.6354 4.5625,4.6562 1.8541,1 4.0625,1.5 6.625,1.5 4.25,0 7.6979,-1.6875 10.3437,-5.0625 2.6667,-3.375 4,-7.8125 4,-13.3125 0,-5.5 -1.3333,-9.9375 -4,-13.3125 -2.6458,-3.375 -6.0937,-5.0625 -10.3437,-5.0625 z m 158.425,0 c 2.125,0 4.125,0.156 6,0.469 1.875,0.312 3.6041,0.781 5.1875,1.4062 l 0,5.4375 c -1.625,-0.833 -3.3125,-1.4583 -5.0625,-1.875 -1.75,-0.417 -3.5625,-0.625 -5.4375,-0.625 -2.8542,0 -5,0.437 -6.4375,1.3125 -1.4167,0.875 -2.125,2.1875 -2.125,3.9375 0,1.3333 0.51,2.3854 1.5312,3.1563 1.0209,0.75 3.0729,1.4687 6.1563,2.1562 l 1.9687,0.437 c 4.0834,0.875 6.9792,2.1146 8.6875,3.7188 1.7292,1.5833 2.5938,3.802 2.5938,6.6562 0,3.25 -1.2917,5.8229 -3.875,7.7188 -2.5625,1.8958 -6.0938,2.8437 -10.5938,2.8437 -1.875,0 -3.8333,-0.187 -5.875,-0.562 -2.0208,-0.354 -4.1562,-0.896 -6.4062,-1.625 l 0,-5.9375 c 2.125,1.1042 4.2187,1.9375 6.2812,2.5 2.0625,0.542 4.1042,0.813 6.125,0.813 2.7084,0 4.7917,-0.458 6.25,-1.375 1.4584,-0.937 2.1875,-2.25 2.1875,-3.9375 0,-1.5625 -0.531,-2.7604 -1.5937,-3.5937 -1.0417,-0.833 -3.3438,-1.6355 -6.9063,-2.4063 l -2,-0.469 c -3.5625,-0.75 -6.1354,-1.8959 -7.7187,-3.4375 -1.5834,-1.5625 -2.375,-3.698 -2.375,-6.4063 0,-3.2917 1.1666,-5.8333 3.5,-7.625 2.3333,-1.7917 5.6458,-2.6875 9.9375,-2.6875 z m 34.5312,0 c 5.0625,0 8.8438,1.3125 11.3438,3.9375 2.5,2.625 3.75,6.6042 3.75,11.9375 l 0,19.9688 -5.75,0 0,-5.3125 c -1.3125,2.125 -2.9479,3.6979 -4.9063,4.7187 -1.9583,1 -4.3541,1.5 -7.1875,1.5 -3.5833,0 -6.4375,-1 -8.5625,-3 -2.1041,-2.0208 -3.1562,-4.7187 -3.1562,-8.0937 0,-3.9375 1.3125,-6.9063 3.9375,-8.9063 2.6458,-2 6.5833,-3 11.8125,-3 l 8.0625,0 0,-0.563 c 0,-2.6458 -0.875,-4.6875 -2.625,-6.125 -1.7292,-1.4583 -4.1667,-2.1875 -7.3125,-2.1875 -2,0 -3.9479,0.24 -5.8438,0.719 -1.8958,0.479 -3.7187,1.1979 -5.4687,2.1562 l 0,-5.3125 c 2.1041,-0.813 4.1458,-1.4167 6.125,-1.8125 1.9791,-0.417 3.9062,-0.625 5.7812,-0.625 z m 64.375,0 c 4.7084,0 8.4271,1.5208 11.1563,4.5625 2.75,3.0208 4.125,7.1354 4.125,12.3438 l 0,2.8125 -26.4375,0 c 0.25,3.9583 1.4375,6.9791 3.5625,9.0625 2.1458,2.0625 5.125,3.0937 8.9375,3.0937 2.2083,0 4.3437,-0.271 6.4062,-0.813 2.0834,-0.542 4.1459,-1.3542 6.1875,-2.4375 l 0,5.4375 c -2.0625,0.875 -4.1771,1.5417 -6.3437,2 -2.1667,0.458 -4.3646,0.687 -6.5938,0.687 -5.5833,0 -10.0104,-1.625 -13.2812,-4.875 -3.25,-3.25 -4.875,-7.6458 -4.875,-13.1875 0,-5.7292 1.5416,-10.2708 4.625,-13.625 3.1041,-3.375 7.2812,-5.0625 12.5312,-5.0625 z m -233.4562,0.844 0,35 5.75,0 0,-35 -5.75,0 z m -25.2813,3.9687 c 3.0417,0 5.4271,1.2083 7.1563,3.625 1.75,2.3958 2.625,5.7083 2.625,9.9375 0,4.2292 -0.875,7.5521 -2.625,9.9688 -1.7292,2.3958 -4.1146,3.5937 -7.1563,3.5937 -3.0417,0 -5.4375,-1.1979 -7.1875,-3.5937 -1.7291,-2.4167 -2.5937,-5.7396 -2.5937,-9.9688 0,-4.2292 0.865,-7.5417 2.5937,-9.9375 1.75,-2.4167 4.1458,-3.625 7.1875,-3.625 z m 258.8,0.06 c -3.2083,0 -5.7812,0.906 -7.7187,2.7188 -1.9167,1.8125 -3.0209,4.3645 -3.3125,7.6562 l 20.5,-0.03 c -0.04,-3.1459 -0.927,-5.6563 -2.6563,-7.5313 -1.7083,-1.875 -3.9791,-2.8125 -6.8125,-2.8125 z m -60.8125,13.375 c -4.6458,0 -7.8646,0.531 -9.6562,1.5938 -1.7917,1.0625 -2.6875,2.875 -2.6875,5.4375 0,2.0416 0.667,3.6666 2,4.875 1.3541,1.1875 3.1875,1.7812 5.5,1.7812 3.1875,0 5.7396,-1.125 7.6562,-3.375 1.9375,-2.2708 2.9063,-5.2812 2.9063,-9.0312 l 0,-1.2813 -5.7188,0 z"
       id="path4464"
       inkscape:connector-curvature="0" />
    <text
       xml:space="preserve"
       style="font-style:normal;font-weight:normal;font-size:40px;line-height:125%;font-family:sans-serif;letter-spacing:0px;word-spacing:0px;fill:#000000;fill-opacity:1;stroke:none;stroke-width:1px;stroke-linecap:butt;stroke-linejoin:miter;stroke-opacity:1"
       x="368.38861"
       y="336.40527"
       id="text4491"
       sodipodi:linespacing="125%"><tspan
         sodipodi:role="line"
         id="tspan4493"
         x="368.38861"
         y="336.40527" /></text>
    <text
       xml:space="preserve"
       style="font-style:normal;font-weight:normal;font-size:40px;line-height:125%;font-family:sans-serif;letter-spacing:0px;word-spacing:0px;fill:#000000;fill-opacity:1;stroke:none;stroke-width:1px;stroke-linecap:butt;stroke-linejoin:miter;stroke-opacity:1"
       x="378.49014"
       y="335.39511"
       id="text4495"
       sodipodi:linespacing="125%"><tspan
         sodipodi:role="line"
         id="tspan4497"
         x="378.49014"
         y="335.39511" /></text>
  </g>
</svg>
