<?xml version="1.0" encoding="UTF-8" standalone="no"?>
<svg
   xmlns:dc="http://purl.org/dc/elements/1.1/"
   xmlns:cc="http://creativecommons.org/ns#"
   xmlns:rdf="http://www.w3.org/1999/02/22-rdf-syntax-ns#"
   xmlns:svg="http://www.w3.org/2000/svg"
   xmlns="http://www.w3.org/2000/svg"
   version="1.1"
   id="svg2"
   viewBox="0 0 412.14258 412.14258"
   height="116.3158mm"
   width="116.3158mm">
  <defs
     id="defs4" />
  <metadata
     id="metadata7">
    <rdf:RDF>
      <cc:Work
         rdf:about="">
        <dc:format>image/svg+xml</dc:format>
        <dc:type
           rdf:resource="http://purl.org/dc/dcmitype/StillImage" />
        <dc:title></dc:title>
      </cc:Work>
    </rdf:RDF>
  </metadata>
  <g
     transform="translate(-173.92871,-277.71948)"
     id="layer1">
    <g
       style="fill:#000000;fill-opacity:0.3137255"
       transform="translate(26.445851,130.45375)"
       id="layer1-6">
      <path
         id="path3338"
         d="M 353.55317,147.26573 A 206.07112,206.07112 0 0 0 147.48286,353.33604 206.07112,206.07112 0 0 0 353.55317,559.40831 206.07112,206.07112 0 0 0 559.62544,353.33604 206.07112,206.07112 0 0 0 353.55317,147.26573 Z M 293.62934,254.3419 a 30.304577,30.304577 0 0 1 30.30469,30.30469 30.304577,30.304577 0 0 1 -30.30469,30.30469 30.304577,30.304577 0 0 1 -30.30468,-30.30469 30.304577,30.304577 0 0 1 30.30468,-30.30469 z m 119.84961,0 a 30.304577,30.304577 0 0 1 30.30469,30.30469 30.304577,30.304577 0 0 1 -30.30469,30.30469 30.304577,30.304577 0 0 1 -30.30468,-30.30469 30.304577,30.304577 0 0 1 30.30468,-30.30469 z m 39.4043,107.96875 c 35.02119,0.37521 44.89375,24.08291 -19.06055,101.86524 -68.26489,83.02494 -144.01757,-49.8125 -144.01757,-49.8125 0,0 110.20299,-52.61922 163.07812,-52.05274 z"
         style="fill:#000000;fill-opacity:0.3137255;fill-rule:evenodd;stroke:none;stroke-width:1px;stroke-linecap:butt;stroke-linejoin:miter;stroke-opacity:1" />
    </g>
  </g>
</svg>
